<svg width="1080" height="1080" viewBox="0 0 1080 1080" fill="none" xmlns="http://www.w3.org/2000/svg">
<rect x="113.492" y="113.492" width="851.186" height="851.186" rx="106.398" fill="#3A506B"/>
<path d="M186.311 476.591C186.311 464.674 189.715 455.397 196.525 448.757C203.505 442.118 213.123 438.798 225.38 438.798H270.834C296.199 438.798 315.351 443.735 328.289 453.609C341.227 463.483 347.696 478.208 347.696 497.786C347.696 516.001 342.248 530.216 331.353 540.43C320.628 550.644 306.158 555.751 287.942 555.751L326.756 594.31C329.821 597.374 331.353 600.864 331.353 604.78C331.353 608.866 329.565 612.44 325.99 615.505C322.245 618.399 318.585 619.846 315.01 619.846C310.073 619.846 305.562 617.633 301.476 613.207L246.319 556.773H220.273V604.78C220.273 609.546 218.656 613.292 215.421 616.015C212.187 618.739 208.101 620.101 203.164 620.101C198.057 620.101 193.971 618.739 190.907 616.015C187.843 613.292 186.311 609.546 186.311 604.78V476.591ZM269.812 530.471C281.048 530.471 289.815 529.365 296.114 527.152C302.413 524.939 306.839 521.534 309.392 516.937C312.116 512.171 313.478 505.787 313.478 497.786C313.478 486.21 309.903 477.868 302.753 472.761C295.773 467.654 284.793 465.1 269.812 465.1H231.253C227.849 465.1 225.125 466.207 223.082 468.42C221.209 470.633 220.273 473.697 220.273 477.613V530.471H269.812ZM434.513 620.101C419.872 620.101 407.104 617.462 396.209 612.185C385.314 606.908 376.887 599.502 370.929 589.969C365.141 580.266 362.247 568.945 362.247 556.007C362.247 535.068 368.29 518.81 380.377 507.234C392.634 495.658 409.828 489.87 431.959 489.87C445.578 489.87 457.58 491.998 467.964 496.254C478.519 500.509 486.69 506.468 492.478 514.128C498.437 521.619 501.416 530.216 501.416 539.919C501.416 548.091 498.777 554.39 493.5 558.816C488.393 563.242 481.073 565.455 471.539 565.455H394.677C394.677 574.988 397.997 582.223 404.636 587.16C411.446 591.927 421.404 594.31 434.513 594.31C448.302 594.31 460.048 591.246 469.752 585.117C475.199 581.713 479.455 580.01 482.52 580.01C485.414 580.01 488.223 581.372 490.946 584.096C493.84 586.99 495.287 590.139 495.287 593.544C495.287 597.63 493.585 600.864 490.18 603.248C483.03 608.695 474.689 612.866 465.155 615.76C455.622 618.654 445.408 620.101 434.513 620.101ZM461.325 541.962C464.219 541.962 466.262 541.452 467.454 540.43C468.645 539.238 469.241 537.366 469.241 534.812C469.241 528.854 465.836 524.172 459.027 520.768C452.388 517.363 443.365 515.661 431.959 515.661C420.553 515.661 411.531 518.044 404.891 522.811C398.422 527.577 395.188 533.961 395.188 541.962H461.325ZM544.108 620.101C538.831 620.101 534.745 618.739 531.851 616.015C528.957 613.292 527.51 609.546 527.51 604.78V439.054C527.51 434.287 528.957 430.542 531.851 427.818C534.745 425.094 538.831 423.732 544.108 423.732C549.215 423.732 553.301 425.094 556.365 427.818C559.43 430.542 560.962 434.287 560.962 439.054V604.78C560.962 609.546 559.43 613.292 556.365 616.015C553.301 618.739 549.215 620.101 544.108 620.101ZM652.812 681.387C640.385 681.387 629.064 679.429 618.85 675.513C608.806 671.768 601.06 666.491 595.612 659.681C593.399 656.787 592.293 653.808 592.293 650.744C592.293 646.658 594.25 642.913 598.166 639.508C600.719 637.465 603.528 636.444 606.593 636.444C611.189 636.444 615.615 638.742 619.871 643.339C627.191 651.169 637.916 655.085 652.046 655.085C664.133 655.085 673.241 651.85 679.369 645.381C685.668 639.083 688.817 629.805 688.817 617.548V606.823C684.732 610.738 679.454 613.973 672.985 616.526C666.516 618.91 660.388 620.101 654.6 620.101C633.32 620.101 616.722 614.483 604.805 603.248C592.889 591.842 586.93 576.01 586.93 555.751V504.17C586.93 500.084 588.547 496.679 591.782 493.955C595.017 491.232 599.017 489.87 603.784 489.87C608.38 489.87 612.296 491.317 615.53 494.211C618.765 496.934 620.382 500.254 620.382 504.17V555.751C620.382 568.009 623.361 577.542 629.319 584.351C635.448 591.161 643.875 594.566 654.6 594.566C664.984 594.566 673.07 591.161 678.858 584.351C684.646 577.542 687.54 568.009 687.54 555.751V506.978C687.54 501.531 688.988 497.36 691.882 494.466C694.946 491.402 699.117 489.87 704.394 489.87C709.671 489.87 713.757 491.402 716.651 494.466C719.545 497.36 720.992 501.531 720.992 506.978V613.207C720.992 634.656 714.949 651.34 702.862 663.256C690.945 675.343 674.262 681.387 652.812 681.387ZM761.191 620.101C755.913 620.101 751.828 618.739 748.934 616.015C746.04 613.292 744.593 609.546 744.593 604.78V439.054C744.593 434.287 746.04 430.542 748.934 427.818C751.828 425.094 755.913 423.732 761.191 423.732C766.298 423.732 770.384 425.094 773.448 427.818C776.512 430.542 778.044 434.287 778.044 439.054L778.3 509.787C784.258 503.318 791.408 498.381 799.75 494.977C808.091 491.572 816.943 489.87 826.307 489.87C847.416 489.87 863.929 495.658 875.846 507.234C887.762 518.64 893.721 534.557 893.721 554.985C893.721 575.414 887.677 591.416 875.59 602.992C863.674 614.398 846.99 620.101 825.54 620.101C815.837 620.101 807.325 618.569 800.005 615.505C792.685 612.27 785.364 606.993 778.044 599.673V604.78C778.044 609.546 776.512 613.292 773.448 616.015C770.384 618.739 766.298 620.101 761.191 620.101ZM820.433 593.544C832.861 593.544 842.564 590.139 849.544 583.33C856.524 576.52 860.014 567.072 860.014 554.985C860.014 542.899 856.524 533.45 849.544 526.641C842.564 519.831 832.861 516.427 820.433 516.427C807.155 516.427 796.77 519.831 789.28 526.641C781.789 533.45 778.044 542.899 778.044 554.985C778.044 567.072 781.789 576.52 789.28 583.33C796.77 590.139 807.155 593.544 820.433 593.544Z" fill="white"/>
</svg>
