<svg width="34" height="34" viewBox="0 0 34 34" fill="none" xmlns="http://www.w3.org/2000/svg">
<rect width="34" height="34" rx="4.25" fill="#3A506B"/>
<path d="M2.90909 14.0383C2.90909 13.5623 3.04509 13.1917 3.31709 12.9265C3.59589 12.6613 3.98009 12.5287 4.46969 12.5287H6.28529C7.29849 12.5287 8.06349 12.7259 8.58029 13.1203C9.09709 13.5147 9.35549 14.1029 9.35549 14.8849C9.35549 15.6125 9.13789 16.1803 8.70269 16.5883C8.27429 16.9963 7.69629 17.2003 6.96869 17.2003L8.51909 18.7405C8.64149 18.8629 8.70269 19.0023 8.70269 19.1587C8.70269 19.3219 8.63129 19.4647 8.48849 19.5871C8.33889 19.7027 8.19269 19.7605 8.04989 19.7605C7.85269 19.7605 7.67249 19.6721 7.50929 19.4953L5.30609 17.2411H4.26569V19.1587C4.26569 19.3491 4.20109 19.4987 4.07189 19.6075C3.94269 19.7163 3.77949 19.7707 3.58229 19.7707C3.37829 19.7707 3.21509 19.7163 3.09269 19.6075C2.97029 19.4987 2.90909 19.3491 2.90909 19.1587V14.0383ZM6.24449 16.1905C6.69329 16.1905 7.04349 16.1463 7.29509 16.0579C7.54669 15.9695 7.72349 15.8335 7.82549 15.6499C7.93429 15.4595 7.98869 15.2045 7.98869 14.8849C7.98869 14.4225 7.84589 14.0893 7.56029 13.8853C7.28149 13.6813 6.84289 13.5793 6.24449 13.5793H4.70429C4.56829 13.5793 4.45949 13.6235 4.37789 13.7119C4.30309 13.8003 4.26569 13.9227 4.26569 14.0791V16.1905H6.24449ZM12.8233 19.7707C12.2385 19.7707 11.7285 19.6653 11.2933 19.4545C10.8581 19.2437 10.5215 18.9479 10.2835 18.5671C10.0523 18.1795 9.93673 17.7273 9.93673 17.2105C9.93673 16.3741 10.1781 15.7247 10.6609 15.2623C11.1505 14.7999 11.8373 14.5687 12.7213 14.5687C13.2653 14.5687 13.7447 14.6537 14.1595 14.8237C14.5811 14.9937 14.9075 15.2317 15.1387 15.5377C15.3767 15.8369 15.4957 16.1803 15.4957 16.5679C15.4957 16.8943 15.3903 17.1459 15.1795 17.3227C14.9755 17.4995 14.6831 17.5879 14.3023 17.5879H11.2321C11.2321 17.9687 11.3647 18.2577 11.6299 18.4549C11.9019 18.6453 12.2997 18.7405 12.8233 18.7405C13.3741 18.7405 13.8433 18.6181 14.2309 18.3733C14.4485 18.2373 14.6185 18.1693 14.7409 18.1693C14.8565 18.1693 14.9687 18.2237 15.0775 18.3325C15.1931 18.4481 15.2509 18.5739 15.2509 18.7099C15.2509 18.8731 15.1829 19.0023 15.0469 19.0975C14.7613 19.3151 14.4281 19.4817 14.0473 19.5973C13.6665 19.7129 13.2585 19.7707 12.8233 19.7707ZM13.8943 16.6495C14.0099 16.6495 14.0915 16.6291 14.1391 16.5883C14.1867 16.5407 14.2105 16.4659 14.2105 16.3639C14.2105 16.1259 14.0745 15.9389 13.8025 15.8029C13.5373 15.6669 13.1769 15.5989 12.7213 15.5989C12.2657 15.5989 11.9053 15.6941 11.6401 15.8845C11.3817 16.0749 11.2525 16.3299 11.2525 16.6495H13.8943ZM17.201 19.7707C16.9902 19.7707 16.827 19.7163 16.7114 19.6075C16.5958 19.4987 16.538 19.3491 16.538 19.1587V12.5389C16.538 12.3485 16.5958 12.1989 16.7114 12.0901C16.827 11.9813 16.9902 11.9269 17.201 11.9269C17.405 11.9269 17.5682 11.9813 17.6906 12.0901C17.813 12.1989 17.8742 12.3485 17.8742 12.5389V19.1587C17.8742 19.3491 17.813 19.4987 17.6906 19.6075C17.5682 19.7163 17.405 19.7707 17.201 19.7707ZM21.5431 22.2187C21.0467 22.2187 20.5945 22.1405 20.1865 21.9841C19.7853 21.8345 19.4759 21.6237 19.2583 21.3517C19.1699 21.2361 19.1257 21.1171 19.1257 20.9947C19.1257 20.8315 19.2039 20.6819 19.3603 20.5459C19.4623 20.4643 19.5745 20.4235 19.6969 20.4235C19.8805 20.4235 20.0573 20.5153 20.2273 20.6989C20.5197 21.0117 20.9481 21.1681 21.5125 21.1681C21.9953 21.1681 22.3591 21.0389 22.6039 20.7805C22.8555 20.5289 22.9813 20.1583 22.9813 19.6687V19.2403C22.8181 19.3967 22.6073 19.5259 22.3489 19.6279C22.0905 19.7231 21.8457 19.7707 21.6145 19.7707C20.7645 19.7707 20.1015 19.5463 19.6255 19.0975C19.1495 18.6419 18.9115 18.0095 18.9115 17.2003V15.1399C18.9115 14.9767 18.9761 14.8407 19.1053 14.7319C19.2345 14.6231 19.3943 14.5687 19.5847 14.5687C19.7683 14.5687 19.9247 14.6265 20.0539 14.7421C20.1831 14.8509 20.2477 14.9835 20.2477 15.1399V17.2003C20.2477 17.6899 20.3667 18.0707 20.6047 18.3427C20.8495 18.6147 21.1861 18.7507 21.6145 18.7507C22.0293 18.7507 22.3523 18.6147 22.5835 18.3427C22.8147 18.0707 22.9303 17.6899 22.9303 17.2003V15.2521C22.9303 15.0345 22.9881 14.8679 23.1037 14.7523C23.2261 14.6299 23.3927 14.5687 23.6035 14.5687C23.8143 14.5687 23.9775 14.6299 24.0931 14.7523C24.2087 14.8679 24.2665 15.0345 24.2665 15.2521V19.4953C24.2665 20.3521 24.0251 21.0185 23.5423 21.4945C23.0663 21.9773 22.3999 22.2187 21.5431 22.2187ZM25.8722 19.7707C25.6614 19.7707 25.4982 19.7163 25.3826 19.6075C25.267 19.4987 25.2092 19.3491 25.2092 19.1587V12.5389C25.2092 12.3485 25.267 12.1989 25.3826 12.0901C25.4982 11.9813 25.6614 11.9269 25.8722 11.9269C26.0762 11.9269 26.2394 11.9813 26.3618 12.0901C26.4842 12.1989 26.5454 12.3485 26.5454 12.5389L26.5556 15.3643C26.7936 15.1059 27.0792 14.9087 27.4124 14.7727C27.7456 14.6367 28.0992 14.5687 28.4732 14.5687C29.3164 14.5687 29.976 14.7999 30.452 15.2623C30.928 15.7179 31.166 16.3537 31.166 17.1697C31.166 17.9857 30.9246 18.6249 30.4418 19.0873C29.9658 19.5429 29.2994 19.7707 28.4426 19.7707C28.055 19.7707 27.715 19.7095 27.4226 19.5871C27.1302 19.4579 26.8378 19.2471 26.5454 18.9547V19.1587C26.5454 19.3491 26.4842 19.4987 26.3618 19.6075C26.2394 19.7163 26.0762 19.7707 25.8722 19.7707ZM28.2386 18.7099C28.735 18.7099 29.1226 18.5739 29.4014 18.3019C29.6802 18.0299 29.8196 17.6525 29.8196 17.1697C29.8196 16.6869 29.6802 16.3095 29.4014 16.0375C29.1226 15.7655 28.735 15.6295 28.2386 15.6295C27.7082 15.6295 27.2934 15.7655 26.9942 16.0375C26.695 16.3095 26.5454 16.6869 26.5454 17.1697C26.5454 17.6525 26.695 18.0299 26.9942 18.3019C27.2934 18.5739 27.7082 18.7099 28.2386 18.7099Z" fill="white"/>
</svg>
