<svg width="1981" height="642" viewBox="0 0 1981 642" fill="none" xmlns="http://www.w3.org/2000/svg">
<g clip-path="url(#clip0_104_18)">
<rect width="1981" height="642" fill="#5BC0BE"/>
<path d="M1308.18 170.029L1309.54 168.597L1309.54 168.597L1308.18 170.029ZM1307.93 92.8505L1306.57 91.4179L1306.56 91.4263L1306.55 91.4348L1307.93 92.8505ZM1366.34 89.7434L1365.04 91.2314L1365.07 91.2552L1365.1 91.278L1366.34 89.7434ZM1366.22 99.1888L1367.47 100.723L1367.48 100.715L1366.22 99.1888ZM1320.86 102.42L1319.4 101.079L1319.37 101.11L1319.35 101.143L1320.86 102.42ZM1319.49 124.169H1317.51V126.146H1319.49V124.169ZM1356.9 125.909L1355.6 127.397L1355.62 127.421L1355.65 127.444L1356.9 125.909ZM1356.77 135.354L1358.02 136.889L1358.03 136.881L1356.77 135.354ZM1319.49 136.97V134.993H1317.51V136.97H1319.49ZM1320.86 160.583L1319.35 161.861L1319.37 161.893L1319.4 161.925L1320.86 160.583ZM1369.08 163.939L1367.78 165.427L1367.8 165.451L1367.83 165.474L1369.08 163.939ZM1368.95 173.384L1370.2 174.919L1370.21 174.911L1368.95 173.384ZM1322.84 173.023C1316.89 173.023 1312.55 171.463 1309.54 168.597L1306.82 171.461C1310.77 175.223 1316.2 176.977 1322.84 176.977V173.023ZM1309.54 168.597C1306.55 165.742 1304.94 161.673 1304.94 156.109H1300.98C1300.98 162.477 1302.85 167.687 1306.82 171.461L1309.54 168.597ZM1304.94 156.109V106.397H1300.98V156.109H1304.94ZM1304.94 106.397C1304.94 100.987 1306.47 97.0361 1309.31 94.2661L1306.55 91.4348C1302.76 95.1274 1300.98 100.207 1300.98 106.397H1304.94ZM1309.29 94.283C1312.23 91.4894 1316.37 89.9807 1321.97 89.9807V86.0263C1315.65 86.0263 1310.43 87.7489 1306.57 91.4179L1309.29 94.283ZM1321.97 89.9807H1360.63V86.0263H1321.97V89.9807ZM1360.63 89.9807C1362.83 89.9807 1364.2 90.4953 1365.04 91.2314L1367.64 88.2554C1365.83 86.6717 1363.4 86.0263 1360.63 86.0263V89.9807ZM1365.1 91.278C1365.86 91.8995 1366.35 92.8503 1366.35 94.4661H1370.31C1370.31 91.9392 1369.48 89.7416 1367.59 88.2089L1365.1 91.278ZM1366.35 94.4661C1366.35 95.9241 1365.87 96.9149 1364.96 97.6625L1367.48 100.715C1369.38 99.1427 1370.31 96.985 1370.31 94.4661H1366.35ZM1364.97 97.6542C1364.12 98.3483 1362.76 98.8272 1360.63 98.8272V102.782C1363.3 102.782 1365.67 102.183 1367.47 100.723L1364.97 97.6542ZM1360.63 98.8272H1324.83V102.782H1360.63V98.8272ZM1324.83 98.8272C1322.7 98.8272 1320.82 99.5414 1319.4 101.079L1322.31 103.761C1322.88 103.144 1323.65 102.782 1324.83 102.782V98.8272ZM1319.35 101.143C1318.04 102.685 1317.51 104.685 1317.51 106.894H1321.47C1321.47 105.292 1321.85 104.309 1322.37 103.697L1319.35 101.143ZM1317.51 106.894V124.169H1321.47V106.894H1317.51ZM1319.49 126.146H1351.18V122.192H1319.49V126.146ZM1351.18 126.146C1353.38 126.146 1354.75 126.661 1355.6 127.397L1358.2 124.421C1356.39 122.837 1353.95 122.192 1351.18 122.192V126.146ZM1355.65 127.444C1356.42 128.065 1356.91 129.016 1356.91 130.632H1360.86C1360.86 128.105 1360.03 125.907 1358.14 124.375L1355.65 127.444ZM1356.91 130.632C1356.91 132.09 1356.42 133.081 1355.52 133.828L1358.03 136.881C1359.94 135.308 1360.86 133.151 1360.86 130.632H1356.91ZM1355.53 133.82C1354.67 134.514 1353.31 134.993 1351.18 134.993V138.947C1353.86 138.947 1356.22 138.349 1358.02 136.889L1355.53 133.82ZM1351.18 134.993H1319.49V138.947H1351.18V134.993ZM1317.51 136.97V156.109H1321.47V136.97H1317.51ZM1317.51 156.109C1317.51 158.318 1318.04 160.318 1319.35 161.861L1322.37 159.306C1321.85 158.694 1321.47 157.712 1321.47 156.109H1317.51ZM1319.4 161.925C1320.82 163.462 1322.7 164.176 1324.83 164.176V160.222C1323.65 160.222 1322.88 159.859 1322.31 159.242L1319.4 161.925ZM1324.83 164.176H1363.36V160.222H1324.83V164.176ZM1363.36 164.176C1365.56 164.176 1366.93 164.691 1367.78 165.427L1370.38 162.451C1368.57 160.867 1366.13 160.222 1363.36 160.222V164.176ZM1367.83 165.474C1368.6 166.095 1369.09 167.046 1369.09 168.662H1373.04C1373.04 166.135 1372.21 163.937 1370.32 162.404L1367.83 165.474ZM1369.09 168.662C1369.09 170.12 1368.6 171.11 1367.7 171.858L1370.21 174.911C1372.12 173.338 1373.04 171.181 1373.04 168.662H1369.09ZM1367.71 171.85C1366.85 172.544 1365.49 173.023 1363.36 173.023V176.977C1366.04 176.977 1368.4 176.379 1370.2 174.919L1367.71 171.85ZM1363.36 173.023H1322.84V176.977H1363.36V173.023ZM1389.27 159.713L1391.14 159.067L1391.14 159.062L1389.27 159.713ZM1376.1 121.932L1374.22 122.557L1374.22 122.57L1374.23 122.583L1376.1 121.932ZM1378.21 114.972L1377.01 113.4L1376.99 113.414L1376.97 113.428L1378.21 114.972ZM1389.14 114.102L1388.08 115.766L1388.08 115.766L1389.14 114.102ZM1391.63 117.209L1393.5 116.565L1393.49 116.54L1393.48 116.515L1391.63 117.209ZM1405.55 157.601L1407.43 156.998L1407.43 156.977L1407.42 156.957L1405.55 157.601ZM1407.54 162.075L1405.94 163.238L1405.97 163.274L1405.99 163.31L1407.54 162.075ZM1412.01 162.075L1413.56 163.31L1413.58 163.274L1413.61 163.238L1412.01 162.075ZM1414 157.601L1412.13 156.957L1412.12 156.977L1412.12 156.998L1414 157.601ZM1427.92 117.209L1426.07 116.515L1426.06 116.54L1426.05 116.565L1427.92 117.209ZM1430.41 114.102L1431.47 115.766L1431.47 115.766L1430.41 114.102ZM1441.34 114.972L1440.11 116.516L1440.13 116.536L1440.16 116.554L1441.34 114.972ZM1443.46 121.932L1445.32 122.583L1445.33 122.57L1445.33 122.557L1443.46 121.932ZM1430.28 159.713L1428.41 159.062L1428.41 159.067L1430.28 159.713ZM1409.78 174.266C1405.24 174.266 1401.52 173.008 1398.49 170.571C1395.45 168.114 1392.96 164.338 1391.14 159.067L1387.4 160.36C1389.39 166.108 1392.23 170.597 1396.01 173.65C1399.83 176.723 1404.45 178.22 1409.78 178.22V174.266ZM1391.14 159.062L1377.96 121.281L1374.23 122.583L1387.4 160.364L1391.14 159.062ZM1377.97 121.307C1377.78 120.726 1377.7 120.234 1377.7 119.819H1373.74C1373.74 120.73 1373.92 121.647 1374.22 122.557L1377.97 121.307ZM1377.7 119.819C1377.7 118.588 1378.19 117.515 1379.44 116.516L1376.97 113.428C1374.91 115.081 1373.74 117.24 1373.74 119.819H1377.7ZM1379.41 116.545C1380.72 115.542 1382.51 114.961 1384.92 114.961V111.007C1381.86 111.007 1379.17 111.752 1377.01 113.4L1379.41 116.545ZM1384.92 114.961C1386.27 114.961 1387.29 115.263 1388.08 115.766L1390.21 112.439C1388.68 111.45 1386.88 111.007 1384.92 111.007V114.961ZM1388.08 115.766C1388.87 116.274 1389.43 116.965 1389.78 117.904L1393.48 116.515C1392.84 114.802 1391.74 113.422 1390.21 112.439L1388.08 115.766ZM1389.76 117.854L1403.68 158.245L1407.42 156.957L1393.5 116.565L1389.76 117.854ZM1403.67 158.203C1404.35 160.325 1405.08 162.063 1405.94 163.238L1409.14 160.912C1408.67 160.264 1408.08 159.019 1407.43 156.998L1403.67 158.203ZM1405.99 163.31C1406.92 164.464 1408.18 165.295 1409.78 165.295V161.34C1409.71 161.34 1409.48 161.342 1409.08 160.84L1405.99 163.31ZM1409.78 165.295C1411.37 165.295 1412.63 164.464 1413.56 163.31L1410.47 160.84C1410.07 161.342 1409.84 161.34 1409.78 161.34V165.295ZM1413.61 163.238C1414.47 162.063 1415.2 160.325 1415.88 158.203L1412.12 156.998C1411.47 159.019 1410.88 160.264 1410.41 160.912L1413.61 163.238ZM1415.87 158.245L1429.79 117.854L1426.05 116.565L1412.13 156.957L1415.87 158.245ZM1429.77 117.904C1430.12 116.965 1430.68 116.274 1431.47 115.766L1429.34 112.439C1427.81 113.422 1426.71 114.802 1426.07 116.515L1429.77 117.904ZM1431.47 115.766C1432.26 115.263 1433.28 114.961 1434.63 114.961V111.007C1432.67 111.007 1430.87 111.45 1429.34 112.439L1431.47 115.766ZM1434.63 114.961C1437.15 114.961 1438.9 115.551 1440.11 116.516L1442.58 113.428C1440.47 111.742 1437.75 111.007 1434.63 111.007V114.961ZM1440.16 116.554C1441.34 117.442 1441.85 118.483 1441.85 119.819H1445.81C1445.81 117.179 1444.66 114.989 1442.53 113.391L1440.16 116.554ZM1441.85 119.819C1441.85 120.234 1441.77 120.726 1441.58 121.307L1445.33 122.557C1445.63 121.647 1445.81 120.73 1445.81 119.819H1441.85ZM1441.59 121.281L1428.41 159.062L1432.15 160.364L1445.32 122.583L1441.59 121.281ZM1428.41 159.067C1426.59 164.338 1424.1 168.114 1421.06 170.571C1418.03 173.008 1414.31 174.266 1409.78 174.266V178.22C1415.1 178.22 1419.72 176.723 1423.54 173.65C1427.32 170.597 1430.16 166.108 1432.15 160.36L1428.41 159.067ZM1463.74 172.39L1464.6 170.611L1464.6 170.611L1463.74 172.39ZM1451.43 161.578L1449.74 162.591L1449.75 162.608L1449.76 162.626L1451.43 161.578ZM1456.03 121.311L1454.67 119.873L1454.66 119.883L1456.03 121.311ZM1498.66 115.967L1497.91 117.796L1497.92 117.8L1498.66 115.967ZM1510.59 124.666L1509.01 125.858L1509.03 125.878L1509.04 125.897L1510.59 124.666ZM1511.09 146.415L1509.82 144.901L1509.81 144.911L1509.79 144.921L1511.09 146.415ZM1462.99 149.647V147.67H1461.01V149.647H1462.99ZM1467.84 160.211L1466.66 161.797L1466.68 161.814L1466.7 161.83L1467.84 160.211ZM1499.53 159.216L1498.48 157.54L1498.47 157.545L1499.53 159.216ZM1509.85 158.719L1508.45 160.117L1508.45 160.117L1509.85 158.719ZM1509.47 168.04L1508.34 166.42L1508.31 166.443L1508.27 166.468L1509.47 168.04ZM1497.29 174.13L1496.72 172.238L1496.72 172.238L1497.29 174.13ZM1498.41 137.467L1499.7 138.968L1499.76 138.919L1499.81 138.865L1498.41 137.467ZM1494.31 127.898L1493.41 129.657L1493.42 129.662L1493.43 129.666L1494.31 127.898ZM1467.96 128.892L1466.81 127.286L1466.8 127.293L1466.79 127.3L1467.96 128.892ZM1463.24 138.213H1461.26V140.19H1463.24V138.213ZM1482.38 174.266C1475.49 174.266 1469.58 173.025 1464.6 170.611L1462.88 174.17C1468.5 176.893 1475.02 178.22 1482.38 178.22V174.266ZM1464.6 170.611C1459.6 168.191 1455.8 164.83 1453.11 160.53L1449.76 162.626C1452.87 167.605 1457.26 171.452 1462.88 174.17L1464.6 170.611ZM1453.13 160.565C1450.52 156.191 1449.19 151.041 1449.19 145.048H1445.23C1445.23 151.649 1446.71 157.519 1449.74 162.591L1453.13 160.565ZM1449.19 145.048C1449.19 135.253 1452 127.911 1457.4 122.739L1454.66 119.883C1448.3 125.979 1445.23 134.462 1445.23 145.048H1449.19ZM1457.39 122.748C1462.88 117.558 1470.71 114.837 1481.14 114.837V110.882C1470.02 110.882 1461.11 113.795 1454.67 119.873L1457.39 122.748ZM1481.14 114.837C1487.56 114.837 1493.14 115.841 1497.91 117.796L1499.41 114.137C1494.07 111.95 1487.97 110.882 1481.14 110.882V114.837ZM1497.92 117.8C1502.79 119.763 1506.45 122.465 1509.01 125.858L1512.17 123.474C1509.1 119.411 1504.81 116.313 1499.4 114.133L1497.92 117.8ZM1509.04 125.897C1511.66 129.188 1512.96 132.936 1512.96 137.219H1516.92C1516.92 132.056 1515.32 127.436 1512.14 123.435L1509.04 125.897ZM1512.96 137.219C1512.96 140.732 1511.85 143.193 1509.82 144.901L1512.36 147.93C1515.46 145.329 1516.92 141.66 1516.92 137.219H1512.96ZM1509.79 144.921C1507.79 146.657 1504.76 147.67 1500.4 147.67V151.624C1505.32 151.624 1509.41 150.482 1512.38 147.91L1509.79 144.921ZM1500.4 147.67H1462.99V151.624H1500.4V147.67ZM1461.01 149.647C1461.01 154.803 1462.84 158.961 1466.66 161.797L1469.02 158.624C1466.37 156.655 1464.97 153.77 1464.97 149.647H1461.01ZM1466.7 161.83C1470.49 164.482 1475.81 165.668 1482.38 165.668V161.713C1476.19 161.713 1471.81 160.579 1468.97 158.591L1466.7 161.83ZM1482.38 165.668C1489.39 165.668 1495.49 164.107 1500.59 160.888L1498.47 157.545C1494.13 160.291 1488.79 161.713 1482.38 161.713V165.668ZM1500.58 160.893C1503.19 159.26 1504.85 158.708 1505.74 158.708V154.754C1503.65 154.754 1501.17 155.859 1498.48 157.54L1500.58 160.893ZM1505.74 158.708C1506.47 158.708 1507.37 159.036 1508.45 160.117L1511.24 157.321C1509.67 155.752 1507.83 154.754 1505.74 154.754V158.708ZM1508.45 160.117C1509.57 161.235 1509.98 162.288 1509.98 163.318H1513.94C1513.94 161.033 1512.94 159.02 1511.24 157.321L1508.45 160.117ZM1509.98 163.318C1509.98 164.648 1509.48 165.623 1508.34 166.42L1510.61 169.66C1512.78 168.138 1513.94 165.964 1513.94 163.318H1509.98ZM1508.27 166.468C1505 168.962 1501.16 170.891 1496.72 172.238L1497.87 176.022C1502.71 174.552 1506.98 172.422 1510.67 169.613L1508.27 166.468ZM1496.72 172.238C1492.28 173.585 1487.51 174.266 1482.38 174.266V178.22C1487.86 178.22 1493.02 177.492 1497.87 176.022L1496.72 172.238ZM1495.43 140.19C1496.96 140.19 1498.56 139.943 1499.7 138.968L1497.12 135.966C1497.13 135.959 1497.05 136.034 1496.75 136.108C1496.46 136.182 1496.03 136.236 1495.43 136.236V140.19ZM1499.81 138.865C1500.91 137.761 1501.26 136.234 1501.26 134.733H1497.3C1497.3 135.717 1497.07 136.013 1497.01 136.069L1499.81 138.865ZM1501.26 134.733C1501.26 130.866 1498.96 128.011 1495.19 126.129L1493.43 129.666C1496.29 131.099 1497.3 132.801 1497.3 134.733H1501.26ZM1495.21 126.138C1491.59 124.282 1486.85 123.435 1481.14 123.435V127.389C1486.52 127.389 1490.56 128.199 1493.41 129.657L1495.21 126.138ZM1481.14 123.435C1475.33 123.435 1470.49 124.646 1466.81 127.286L1469.12 130.498C1471.9 128.498 1475.84 127.389 1481.14 127.389V123.435ZM1466.79 127.3C1463.14 129.991 1461.26 133.687 1461.26 138.213H1465.22C1465.22 134.95 1466.49 132.433 1469.14 130.484L1466.79 127.3ZM1463.24 140.19H1495.43V136.236H1463.24V140.19ZM1527.27 174.254L1525.91 175.694L1525.91 175.694L1527.27 174.254ZM1527.14 114.848L1528.5 116.291L1528.5 116.288L1527.14 114.848ZM1538.83 114.848L1540.18 113.408L1540.18 113.408L1538.83 114.848ZM1540.94 124.418H1538.96V130.197L1542.5 125.629L1540.94 124.418ZM1549.89 116.837L1550.79 118.596L1550.8 118.592L1550.8 118.588L1549.89 116.837ZM1569.9 115.842L1568.64 117.369L1568.69 117.409L1568.74 117.445L1569.9 115.842ZM1569.9 125.412L1571.1 126.983L1571.1 126.978L1571.11 126.973L1569.9 125.412ZM1546.28 132.372L1544.84 131.025L1544.83 131.026L1546.28 132.372ZM1539.2 174.254L1540.51 175.732L1540.51 175.732L1539.2 174.254ZM1533.23 174.266C1531 174.266 1529.56 173.694 1528.62 172.815L1525.91 175.694C1527.8 177.466 1530.33 178.22 1533.23 178.22V174.266ZM1528.62 172.815C1527.69 171.936 1527.13 170.678 1527.13 168.786H1523.18C1523.18 171.534 1524.03 173.921 1525.91 175.694L1528.62 172.815ZM1527.13 168.786V120.316H1523.18V168.786H1527.13ZM1527.13 120.316C1527.13 118.276 1527.69 117.05 1528.5 116.291L1525.79 113.406C1523.95 115.132 1523.18 117.552 1523.18 120.316H1527.13ZM1528.5 116.288C1529.44 115.398 1530.85 114.837 1532.98 114.837V110.882C1530.14 110.882 1527.66 111.647 1525.79 113.408L1528.5 116.288ZM1532.98 114.837C1535.12 114.837 1536.52 115.398 1537.47 116.288L1540.18 113.408C1538.31 111.647 1535.83 110.882 1532.98 110.882V114.837ZM1537.47 116.288C1538.4 117.166 1538.96 118.424 1538.96 120.316H1542.92C1542.92 117.569 1542.06 115.181 1540.18 113.408L1537.47 116.288ZM1538.96 120.316V124.418H1542.92V120.316H1538.96ZM1542.5 125.629C1544.91 122.521 1547.67 120.192 1550.79 118.596L1548.99 115.077C1545.31 116.962 1542.1 119.686 1539.38 123.207L1542.5 125.629ZM1550.8 118.588C1554 116.915 1557.41 116.08 1561.07 116.08V112.125C1556.78 112.125 1552.74 113.112 1548.97 115.085L1550.8 118.588ZM1561.07 116.08H1563.81V112.125H1561.07V116.08ZM1563.81 116.08C1566.2 116.08 1567.71 116.607 1568.64 117.369L1571.15 114.316C1569.26 112.758 1566.71 112.125 1563.81 112.125V116.08ZM1568.74 117.445C1569.64 118.1 1570.16 119.036 1570.16 120.565H1574.11C1574.11 117.951 1573.13 115.739 1571.05 114.24L1568.74 117.445ZM1570.16 120.565C1570.16 122.094 1569.64 123.105 1568.68 123.851L1571.11 126.973C1573.13 125.399 1574.11 123.179 1574.11 120.565H1570.16ZM1568.7 123.841C1567.77 124.553 1566.23 125.05 1563.81 125.05V129.005C1566.69 129.005 1569.21 128.426 1571.1 126.983L1568.7 123.841ZM1563.81 125.05H1559.58V129.005H1563.81V125.05ZM1559.58 125.05C1553.57 125.05 1548.58 127.002 1544.84 131.025L1547.73 133.718C1550.62 130.616 1554.49 129.005 1559.58 129.005V125.05ZM1544.83 131.026C1541.17 134.969 1539.46 140.308 1539.46 146.788H1543.41C1543.41 141.006 1544.93 136.734 1547.73 133.717L1544.83 131.026ZM1539.46 146.788V168.786H1543.41V146.788H1539.46ZM1539.46 168.786C1539.46 170.642 1538.88 171.888 1537.89 172.777L1540.51 175.732C1542.5 173.969 1543.41 171.569 1543.41 168.786H1539.46ZM1537.89 172.777C1536.84 173.707 1535.36 174.266 1533.23 174.266V178.22C1536.08 178.22 1538.58 177.453 1540.51 175.732L1537.89 172.777ZM1594.18 203.212L1594.89 201.366L1594.88 201.362L1594.88 201.359L1594.18 203.212ZM1582.87 195.506L1581.3 196.707L1581.32 196.725L1581.33 196.741L1582.87 195.506ZM1584.12 185.688L1582.88 184.144L1582.85 184.17L1582.82 184.196L1584.12 185.688ZM1594.68 187.552L1593.23 188.896L1593.24 188.903L1594.68 187.552ZM1623.64 188.547L1622.24 187.149L1622.22 187.167L1622.2 187.187L1623.64 188.547ZM1628.24 169.78H1630.21V165.147L1626.87 168.353L1628.24 169.78ZM1620.53 174.503L1621.22 176.358L1621.24 176.35L1621.26 176.342L1620.53 174.503ZM1587.35 168.04L1585.98 169.469L1585.99 169.474L1585.99 169.479L1587.35 168.04ZM1581.01 114.848L1579.74 113.336L1579.74 113.336L1581.01 114.848ZM1592.57 114.972L1591.25 116.446L1591.27 116.466L1591.3 116.485L1592.57 114.972ZM1599.28 158.844L1597.79 160.145L1597.8 160.156L1597.81 160.166L1599.28 158.844ZM1623.39 158.844L1624.9 160.124L1624.9 160.124L1623.39 158.844ZM1629.73 115.097L1631.13 116.495L1631.13 116.495L1629.73 115.097ZM1641.78 115.097L1640.35 116.454L1640.37 116.475L1640.39 116.495L1641.78 115.097ZM1635.07 197.246L1633.68 195.838L1633.67 195.848L1633.66 195.858L1635.07 197.246ZM1610.71 204.093C1604.87 204.093 1599.61 203.174 1594.89 201.366L1593.48 205.058C1598.7 207.061 1604.46 208.047 1610.71 208.047V204.093ZM1594.88 201.359C1590.25 199.633 1586.8 197.249 1584.42 194.271L1581.33 196.741C1584.25 200.392 1588.35 203.145 1593.49 205.064L1594.88 201.359ZM1584.45 194.305C1583.58 193.174 1583.24 192.136 1583.24 191.156H1579.28C1579.28 193.16 1580.01 195.021 1581.3 196.707L1584.45 194.305ZM1583.24 191.156C1583.24 189.888 1583.82 188.571 1585.42 187.18L1582.82 184.196C1580.61 186.12 1579.28 188.448 1579.28 191.156H1583.24ZM1585.35 187.232C1586.27 186.498 1587.21 186.174 1588.22 186.174V182.22C1586.25 182.22 1584.45 182.89 1582.88 184.144L1585.35 187.232ZM1588.22 186.174C1589.73 186.174 1591.39 186.911 1593.23 188.896L1596.13 186.209C1593.83 183.72 1591.18 182.22 1588.22 182.22V186.174ZM1593.24 188.903C1597.28 193.23 1603.1 195.246 1610.34 195.246V191.292C1603.83 191.292 1599.21 189.497 1596.13 186.202L1593.24 188.903ZM1610.34 195.246C1616.57 195.246 1621.6 193.574 1625.07 189.906L1622.2 187.187C1619.71 189.816 1615.88 191.292 1610.34 191.292V195.246ZM1625.04 189.945C1628.59 186.387 1630.21 181.288 1630.21 175H1626.26C1626.26 180.642 1624.81 184.575 1622.24 187.149L1625.04 189.945ZM1630.21 175V169.78H1626.26V175H1630.21ZM1626.87 168.353C1625.1 170.045 1622.77 171.494 1619.81 172.664L1621.26 176.342C1624.59 175.026 1627.39 173.327 1629.61 171.208L1626.87 168.353ZM1619.85 172.648C1616.88 173.742 1614.13 174.266 1611.58 174.266V178.22C1614.67 178.22 1617.89 177.584 1621.22 176.358L1619.85 172.648ZM1611.58 174.266C1601.58 174.266 1594.04 171.63 1588.71 166.602L1585.99 169.479C1592.26 175.387 1600.88 178.22 1611.58 178.22V174.266ZM1588.72 166.612C1583.39 161.516 1580.63 154.376 1580.63 144.924H1576.67C1576.67 155.191 1579.71 163.462 1585.98 169.469L1588.72 166.612ZM1580.63 144.924V119.819H1576.67V144.924H1580.63ZM1580.63 119.819C1580.63 118.437 1581.14 117.326 1582.28 116.361L1579.74 113.336C1577.73 115.022 1576.67 117.225 1576.67 119.819H1580.63ZM1582.28 116.361C1583.46 115.373 1584.93 114.837 1586.85 114.837V110.882C1584.13 110.882 1581.71 111.672 1579.74 113.336L1582.28 116.361ZM1586.85 114.837C1588.63 114.837 1590.06 115.382 1591.25 116.446L1593.89 113.499C1591.93 111.746 1589.54 110.882 1586.85 110.882V114.837ZM1591.3 116.485C1592.46 117.469 1592.95 118.548 1592.95 119.819H1596.91C1596.91 117.279 1595.82 115.127 1593.84 113.46L1591.3 116.485ZM1592.95 119.819V144.924H1596.91V119.819H1592.95ZM1592.95 144.924C1592.95 151.197 1594.48 156.36 1597.79 160.145L1600.77 157.542C1598.28 154.699 1596.91 150.582 1596.91 144.924H1592.95ZM1597.81 160.166C1601.23 163.969 1605.91 165.792 1611.58 165.792V161.838C1606.82 161.838 1603.29 160.346 1600.75 157.521L1597.81 160.166ZM1611.58 165.792C1617.11 165.792 1621.64 163.954 1624.9 160.124L1621.88 157.563C1619.51 160.361 1616.16 161.838 1611.58 161.838V165.792ZM1624.9 160.124C1628.11 156.339 1629.59 151.185 1629.59 144.924H1625.64C1625.64 150.594 1624.3 154.72 1621.88 157.563L1624.9 160.124ZM1629.59 144.924V121.186H1625.64V144.924H1629.59ZM1629.59 121.186C1629.59 118.88 1630.2 117.422 1631.13 116.495L1628.33 113.699C1626.44 115.588 1625.64 118.19 1625.64 121.186H1629.59ZM1631.13 116.495C1632.17 115.452 1633.65 114.837 1635.82 114.837V110.882C1632.85 110.882 1630.27 111.758 1628.33 113.699L1631.13 116.495ZM1635.82 114.837C1637.99 114.837 1639.4 115.453 1640.35 116.454L1643.22 113.739C1641.35 111.757 1638.78 110.882 1635.82 110.882V114.837ZM1640.39 116.495C1641.31 117.422 1641.92 118.88 1641.92 121.186H1645.87C1645.87 118.19 1645.07 115.588 1643.18 113.699L1640.39 116.495ZM1641.92 121.186V172.887H1645.87V121.186H1641.92ZM1641.92 172.887C1641.92 182.945 1639.1 190.502 1633.68 195.838L1636.46 198.654C1642.81 192.391 1645.87 183.709 1645.87 172.887H1641.92ZM1633.66 195.858C1628.33 201.271 1620.77 204.093 1610.71 204.093V208.047C1621.54 208.047 1630.22 204.987 1636.48 198.634L1633.66 195.858ZM1706.09 158.968L1704.83 160.494L1704.84 160.502L1706.09 158.968ZM1706.34 167.792L1704.72 166.658L1704.71 166.665L1704.71 166.672L1706.34 167.792ZM1698.63 174.006L1699.44 175.809L1699.44 175.809L1698.63 174.006ZM1671.79 170.899L1670.41 172.312L1670.42 172.328L1670.44 172.343L1671.79 170.899ZM1666.2 126.903H1668.17V124.926H1666.2V126.903ZM1655.13 125.163L1656.35 123.603L1656.35 123.603L1655.13 125.163ZM1655.01 115.842L1653.8 114.282L1653.77 114.299L1653.75 114.316L1655.01 115.842ZM1666.2 114.102V116.08H1668.17V114.102H1666.2ZM1668.43 89.8677L1667.12 88.3899L1667.12 88.3899L1668.43 89.8677ZM1680.36 89.8677L1681.72 88.4279L1681.72 88.4279L1680.36 89.8677ZM1682.48 114.102H1680.5V116.08H1682.48V114.102ZM1700.37 115.842L1699.12 117.369L1699.14 117.386L1699.16 117.403L1700.37 115.842ZM1700.37 125.163L1699.16 123.603L1699.14 123.62L1699.12 123.637L1700.37 125.163ZM1682.48 126.903V124.926H1680.5V126.903H1682.48ZM1684.09 161.702L1682.69 163.1L1682.72 163.126L1682.75 163.151L1684.09 161.702ZM1692.54 162.696L1693.25 164.542L1693.29 164.528L1693.32 164.514L1692.54 162.696ZM1696.02 160.335L1697.37 161.784L1697.38 161.772L1697.39 161.76L1696.02 160.335ZM1704.84 160.502C1705.75 161.24 1706.1 162.021 1706.1 162.945H1710.06C1710.06 160.72 1709.08 158.849 1707.34 157.433L1704.84 160.502ZM1706.1 162.945C1706.1 164.012 1705.71 165.239 1704.72 166.658L1707.96 168.926C1709.28 167.031 1710.06 165.026 1710.06 162.945H1706.1ZM1704.71 166.672C1703.12 168.987 1700.85 170.84 1697.82 172.203L1699.44 175.809C1703.04 174.189 1705.91 171.899 1707.97 168.912L1704.71 166.672ZM1697.82 172.203C1694.8 173.564 1691.35 174.266 1687.45 174.266V178.22C1691.83 178.22 1695.84 177.43 1699.44 175.809L1697.82 172.203ZM1687.45 174.266C1681.18 174.266 1676.49 172.589 1673.14 169.454L1670.44 172.343C1674.71 176.334 1680.46 178.22 1687.45 178.22V174.266ZM1673.17 169.485C1669.9 166.287 1668.17 161.868 1668.17 155.985H1664.22C1664.22 162.696 1666.22 168.22 1670.41 172.312L1673.17 169.485ZM1668.17 155.985V126.903H1664.22V155.985H1668.17ZM1666.2 124.926H1661.1V128.881H1666.2V124.926ZM1661.1 124.926C1658.91 124.926 1657.4 124.418 1656.35 123.603L1653.92 126.724C1655.85 128.229 1658.31 128.881 1661.1 128.881V124.926ZM1656.35 123.603C1655.34 122.821 1654.87 121.867 1654.87 120.565H1650.92C1650.92 123.075 1651.94 125.186 1653.92 126.724L1656.35 123.603ZM1654.87 120.565C1654.87 119.107 1655.36 118.116 1656.27 117.369L1653.75 114.316C1651.84 115.888 1650.92 118.046 1650.92 120.565H1654.87ZM1656.22 117.403C1657.26 116.596 1658.81 116.08 1661.1 116.08V112.125C1658.25 112.125 1655.74 112.769 1653.8 114.282L1656.22 117.403ZM1661.1 116.08H1666.2V112.125H1661.1V116.08ZM1668.17 114.102V95.3361H1664.22V114.102H1668.17ZM1668.17 95.3361C1668.17 93.4797 1668.75 92.2336 1669.75 91.3455L1667.12 88.3899C1665.14 90.1532 1664.22 92.5526 1664.22 95.3361H1668.17ZM1669.75 91.3455C1670.79 90.4151 1672.27 89.8564 1674.4 89.8564V85.902C1671.55 85.902 1669.05 86.6689 1667.12 88.3899L1669.75 91.3455ZM1674.4 89.8564C1676.63 89.8564 1678.07 90.4278 1679.01 91.3075L1681.72 88.4279C1679.84 86.6563 1677.3 85.902 1674.4 85.902V89.8564ZM1679.01 91.3075C1679.94 92.186 1680.5 93.4438 1680.5 95.3361H1684.45C1684.45 92.5885 1683.6 90.2008 1681.72 88.4279L1679.01 91.3075ZM1680.5 95.3361V114.102H1684.45V95.3361H1680.5ZM1682.48 116.08H1694.41V112.125H1682.48V116.08ZM1694.41 116.08C1696.7 116.08 1698.18 116.599 1699.12 117.369L1701.63 114.316C1699.75 112.766 1697.25 112.125 1694.41 112.125V116.08ZM1699.16 117.403C1700.14 118.166 1700.63 119.15 1700.63 120.565H1704.59C1704.59 118.004 1703.59 115.838 1701.59 114.282L1699.16 117.403ZM1700.63 120.565C1700.63 121.867 1700.16 122.821 1699.16 123.603L1701.59 126.724C1703.56 125.186 1704.59 123.075 1704.59 120.565H1700.63ZM1699.12 123.637C1698.18 124.407 1696.7 124.926 1694.41 124.926V128.881C1697.25 128.881 1699.75 128.24 1701.63 126.69L1699.12 123.637ZM1694.41 124.926H1682.48V128.881H1694.41V124.926ZM1680.5 126.903V157.352H1684.45V126.903H1680.5ZM1680.5 157.352C1680.5 159.589 1681.17 161.581 1682.69 163.1L1685.49 160.304C1684.85 159.669 1684.45 158.761 1684.45 157.352H1680.5ZM1682.75 163.151C1684.34 164.634 1686.39 165.295 1688.69 165.295V161.34C1687.18 161.34 1686.16 160.924 1685.44 160.253L1682.75 163.151ZM1688.69 165.295C1690.36 165.295 1691.89 165.064 1693.25 164.542L1691.83 160.851C1691.04 161.157 1690.01 161.34 1688.69 161.34V165.295ZM1693.32 164.514C1694.74 163.908 1696.08 162.978 1697.37 161.784L1694.68 158.886C1693.64 159.846 1692.67 160.491 1691.76 160.879L1693.32 164.514ZM1697.39 161.76C1699.4 159.828 1700.92 159.205 1701.99 159.205V155.251C1699.41 155.251 1696.95 156.699 1694.65 158.91L1697.39 161.76ZM1701.99 159.205C1702.71 159.205 1703.65 159.517 1704.83 160.494L1707.35 157.442C1705.72 156.099 1703.92 155.251 1701.99 155.251V159.205ZM1719.15 174.254L1717.8 175.694L1717.8 175.694L1719.15 174.254ZM1719.15 82.6594L1720.51 84.0992L1720.51 84.0992L1719.15 82.6594ZM1731.08 82.6594L1729.77 84.1372L1729.77 84.1372L1731.08 82.6594ZM1733.32 123.921H1731.34V129.533L1734.86 125.16L1733.32 123.921ZM1743.63 115.594L1744.45 117.392L1744.47 117.385L1744.49 117.378L1743.63 115.594ZM1775.7 120.441L1774.23 121.765L1774.24 121.777L1774.25 121.79L1775.7 120.441ZM1780.42 174.254L1781.73 175.732L1781.73 175.732L1780.42 174.254ZM1768.49 174.254L1767.13 175.694L1767.13 175.694L1768.49 174.254ZM1738.54 131.377L1739.97 132.743L1739.98 132.735L1739.98 132.727L1738.54 131.377ZM1731.08 174.254L1732.4 175.732L1732.4 175.732L1731.08 174.254ZM1725.12 174.266C1722.88 174.266 1721.44 173.694 1720.51 172.815L1717.8 175.694C1719.68 177.466 1722.21 178.22 1725.12 178.22V174.266ZM1720.51 172.815C1719.57 171.936 1719.01 170.678 1719.01 168.786H1715.06C1715.06 171.534 1715.91 173.921 1717.8 175.694L1720.51 172.815ZM1719.01 168.786V88.1278H1715.06V168.786H1719.01ZM1719.01 88.1278C1719.01 86.2355 1719.57 84.9777 1720.51 84.0992L1717.8 81.2196C1715.91 82.9925 1715.06 85.3802 1715.06 88.1278H1719.01ZM1720.51 84.0992C1721.44 83.2195 1722.88 82.6481 1725.12 82.6481V78.6937C1722.21 78.6937 1719.68 79.448 1717.8 81.2196L1720.51 84.0992ZM1725.12 82.6481C1727.24 82.6481 1728.72 83.2069 1729.77 84.1372L1732.4 81.1817C1730.46 79.4607 1727.96 78.6937 1725.12 78.6937V82.6481ZM1729.77 84.1372C1730.77 85.0253 1731.34 86.2714 1731.34 88.1278H1735.3C1735.3 85.3443 1734.38 82.9449 1732.4 81.1817L1729.77 84.1372ZM1731.34 88.1278V123.921H1735.3V88.1278H1731.34ZM1734.86 125.16C1737.76 121.548 1740.97 118.985 1744.45 117.392L1742.81 113.795C1738.68 115.683 1735 118.67 1731.78 122.681L1734.86 125.16ZM1744.49 117.378C1747.98 115.705 1752.12 114.837 1756.93 114.837V110.882C1751.64 110.882 1746.91 111.837 1742.78 113.81L1744.49 117.378ZM1756.93 114.837C1764.43 114.837 1770.11 117.198 1774.23 121.765L1777.17 119.117C1772.17 113.576 1765.34 110.882 1756.93 110.882V114.837ZM1774.25 121.79C1778.47 126.304 1780.68 132.568 1780.68 140.823H1784.64C1784.64 131.844 1782.21 124.519 1777.14 119.092L1774.25 121.79ZM1780.68 140.823V168.786H1784.64V140.823H1780.68ZM1780.68 168.786C1780.68 170.642 1780.11 171.888 1779.11 172.777L1781.73 175.732C1783.72 173.969 1784.64 171.569 1784.64 168.786H1780.68ZM1779.11 172.777C1778.06 173.707 1776.58 174.266 1774.46 174.266V178.22C1777.3 178.22 1779.8 177.453 1781.73 175.732L1779.11 172.777ZM1774.46 174.266C1772.22 174.266 1770.78 173.694 1769.85 172.815L1767.13 175.694C1769.02 177.466 1771.55 178.22 1774.46 178.22V174.266ZM1769.85 172.815C1768.91 171.936 1768.35 170.678 1768.35 168.786H1764.4C1764.4 171.534 1765.25 173.921 1767.13 175.694L1769.85 172.815ZM1768.35 168.786V140.823H1764.4V168.786H1768.35ZM1768.35 140.823C1768.35 135.786 1767.11 131.579 1764.39 128.46L1761.41 131.064C1763.32 133.247 1764.4 136.414 1764.4 140.823H1768.35ZM1764.39 128.46C1761.62 125.303 1757.81 123.808 1753.2 123.808V127.762C1756.89 127.762 1759.53 128.918 1761.41 131.064L1764.39 128.46ZM1753.2 123.808C1746.5 123.808 1741.03 125.809 1737.09 130.028L1739.98 132.727C1743.01 129.49 1747.32 127.762 1753.2 127.762V123.808ZM1737.11 130.012C1733.18 134.13 1731.34 139.817 1731.34 146.788H1735.3C1735.3 140.503 1736.94 135.916 1739.97 132.743L1737.11 130.012ZM1731.34 146.788V168.786H1735.3V146.788H1731.34ZM1731.34 168.786C1731.34 170.642 1730.77 171.888 1729.77 172.777L1732.4 175.732C1734.38 173.969 1735.3 171.569 1735.3 168.786H1731.34ZM1729.77 172.777C1728.72 173.707 1727.24 174.266 1725.12 174.266V178.22C1727.96 178.22 1730.46 177.453 1732.4 175.732L1729.77 172.777ZM1796.23 102.669L1794.87 104.099L1794.9 104.131L1794.94 104.161L1796.23 102.669ZM1796.23 89.3706L1797.56 90.8336L1797.57 90.8307L1796.23 89.3706ZM1811.15 89.3706L1809.81 90.8307L1809.85 90.8609L1809.88 90.8895L1811.15 89.3706ZM1811.15 102.669L1812.44 104.161L1812.45 104.157L1811.15 102.669ZM1797.85 174.254L1796.49 175.694L1796.49 175.694L1797.85 174.254ZM1797.85 114.848L1796.49 113.408L1796.49 113.408L1797.85 114.848ZM1809.78 114.848L1811.09 113.37L1811.09 113.37L1809.78 114.848ZM1809.78 174.254L1808.47 172.777L1808.47 172.777L1809.78 174.254ZM1803.69 103.177C1801 103.177 1799 102.457 1797.53 101.177L1794.94 104.161C1797.27 106.194 1800.25 107.131 1803.69 107.131V103.177ZM1797.6 101.238C1796.2 99.9054 1795.48 98.2024 1795.48 95.9575H1791.52C1791.52 99.1809 1792.62 101.952 1794.87 104.099L1797.6 101.238ZM1795.48 95.9575C1795.48 93.7122 1796.2 92.0724 1797.56 90.8336L1794.9 87.9076C1792.62 89.9829 1791.52 92.7344 1791.52 95.9575H1795.48ZM1797.57 90.8307C1799.04 89.4842 1801.02 88.7379 1803.69 88.7379V84.7835C1800.23 84.7835 1797.24 85.7771 1794.9 87.9105L1797.57 90.8307ZM1803.69 88.7379C1806.36 88.7379 1808.34 89.4842 1809.81 90.8307L1812.48 87.9105C1810.14 85.7771 1807.15 84.7835 1803.69 84.7835V88.7379ZM1809.88 90.8895C1811.39 92.1474 1812.15 93.7722 1812.15 95.9575H1816.11C1816.11 92.6743 1814.88 89.908 1812.41 87.8517L1809.88 90.8895ZM1812.15 95.9575C1812.15 98.1441 1811.39 99.8308 1809.85 101.181L1812.45 104.157C1814.88 102.027 1816.11 99.2391 1816.11 95.9575H1812.15ZM1809.85 101.177C1808.38 102.457 1806.39 103.177 1803.69 103.177V107.131C1807.13 107.131 1810.11 106.194 1812.44 104.161L1809.85 101.177ZM1803.81 174.266C1801.58 174.266 1800.14 173.694 1799.2 172.815L1796.49 175.694C1798.38 177.466 1800.91 178.22 1803.81 178.22V174.266ZM1799.2 172.815C1798.27 171.936 1797.71 170.678 1797.71 168.786H1793.76C1793.76 171.534 1794.61 173.921 1796.49 175.694L1799.2 172.815ZM1797.71 168.786V120.316H1793.76V168.786H1797.71ZM1797.71 120.316C1797.71 118.424 1798.27 117.166 1799.2 116.288L1796.49 113.408C1794.61 115.181 1793.76 117.569 1793.76 120.316H1797.71ZM1799.2 116.288C1800.14 115.408 1801.58 114.837 1803.81 114.837V110.882C1800.91 110.882 1798.38 111.637 1796.49 113.408L1799.2 116.288ZM1803.81 114.837C1805.94 114.837 1807.42 115.396 1808.47 116.326L1811.09 113.37C1809.16 111.649 1806.66 110.882 1803.81 110.882V114.837ZM1808.47 116.326C1809.47 117.214 1810.04 118.46 1810.04 120.316H1813.99C1813.99 117.533 1813.08 115.134 1811.09 113.37L1808.47 116.326ZM1810.04 120.316V168.786H1813.99V120.316H1810.04ZM1810.04 168.786C1810.04 170.642 1809.47 171.888 1808.47 172.777L1811.09 175.732C1813.08 173.969 1813.99 171.569 1813.99 168.786H1810.04ZM1808.47 172.777C1807.42 173.707 1805.94 174.266 1803.81 174.266V178.22C1806.66 178.22 1809.16 177.453 1811.09 175.732L1808.47 172.777ZM1827.65 174.254L1826.3 175.694L1826.3 175.694L1827.65 174.254ZM1827.53 114.848L1828.88 116.291L1828.88 116.288L1827.53 114.848ZM1839.21 114.848L1840.57 113.408L1840.57 113.408L1839.21 114.848ZM1841.32 123.921H1839.35V129.57L1842.87 125.154L1841.32 123.921ZM1884.2 120.441L1882.73 121.765L1882.74 121.777L1882.76 121.79L1884.2 120.441ZM1888.92 174.254L1890.24 175.732L1890.24 175.732L1888.92 174.254ZM1876.99 174.254L1875.64 175.694L1875.64 175.694L1876.99 174.254ZM1847.04 131.377L1848.47 132.743L1848.48 132.735L1848.49 132.727L1847.04 131.377ZM1839.58 174.254L1840.9 175.732L1840.9 175.732L1839.58 174.254ZM1833.62 174.266C1831.38 174.266 1829.94 173.694 1829.01 172.815L1826.3 175.694C1828.18 177.466 1830.72 178.22 1833.62 178.22V174.266ZM1829.01 172.815C1828.08 171.936 1827.52 170.678 1827.52 168.786H1823.56C1823.56 171.534 1824.41 173.921 1826.3 175.694L1829.01 172.815ZM1827.52 168.786V120.316H1823.56V168.786H1827.52ZM1827.52 120.316C1827.52 118.276 1828.07 117.05 1828.88 116.291L1826.18 113.406C1824.34 115.132 1823.56 117.552 1823.56 120.316H1827.52ZM1828.88 116.288C1829.83 115.398 1831.24 114.837 1833.37 114.837V110.882C1830.53 110.882 1828.05 111.647 1826.17 113.408L1828.88 116.288ZM1833.37 114.837C1835.5 114.837 1836.91 115.398 1837.86 116.288L1840.57 113.408C1838.7 111.647 1836.21 110.882 1833.37 110.882V114.837ZM1837.86 116.288C1838.79 117.166 1839.35 118.424 1839.35 120.316H1843.3C1843.3 117.569 1842.45 115.181 1840.57 113.408L1837.86 116.288ZM1839.35 120.316V123.921H1843.3V120.316H1839.35ZM1842.87 125.154C1848.34 118.292 1855.79 114.837 1865.43 114.837V110.882C1854.7 110.882 1846.07 114.802 1839.78 122.688L1842.87 125.154ZM1865.43 114.837C1872.93 114.837 1878.61 117.198 1882.73 121.765L1885.67 119.117C1880.67 113.576 1873.84 110.882 1865.43 110.882V114.837ZM1882.76 121.79C1886.97 126.304 1889.18 132.568 1889.18 140.823H1893.14C1893.14 131.844 1890.71 124.519 1885.65 119.092L1882.76 121.79ZM1889.18 140.823V168.786H1893.14V140.823H1889.18ZM1889.18 168.786C1889.18 170.642 1888.61 171.888 1887.61 172.777L1890.24 175.732C1892.22 173.969 1893.14 171.569 1893.14 168.786H1889.18ZM1887.61 172.777C1886.56 173.707 1885.08 174.266 1882.96 174.266V178.22C1885.8 178.22 1888.3 177.453 1890.24 175.732L1887.61 172.777ZM1882.96 174.266C1880.72 174.266 1879.28 173.694 1878.35 172.815L1875.64 175.694C1877.52 177.466 1880.06 178.22 1882.96 178.22V174.266ZM1878.35 172.815C1877.41 171.936 1876.86 170.678 1876.86 168.786H1872.9C1872.9 171.534 1873.75 173.921 1875.64 175.694L1878.35 172.815ZM1876.86 168.786V140.823H1872.9V168.786H1876.86ZM1876.86 140.823C1876.86 135.786 1875.62 131.579 1872.89 128.46L1869.91 131.064C1871.82 133.247 1872.9 136.414 1872.9 140.823H1876.86ZM1872.89 128.46C1870.13 125.303 1866.31 123.808 1861.71 123.808V127.762C1865.39 127.762 1868.03 128.918 1869.91 131.064L1872.89 128.46ZM1861.71 123.808C1855 123.808 1849.53 125.809 1845.6 130.028L1848.49 132.727C1851.51 129.49 1855.82 127.762 1861.71 127.762V123.808ZM1845.61 130.012C1841.68 134.13 1839.84 139.817 1839.84 146.788H1843.8C1843.8 140.503 1845.44 135.916 1848.47 132.743L1845.61 130.012ZM1839.84 146.788V168.786H1843.8V146.788H1839.84ZM1839.84 168.786C1839.84 170.642 1839.27 171.888 1838.27 172.777L1840.9 175.732C1842.88 173.969 1843.8 171.569 1843.8 168.786H1839.84ZM1838.27 172.777C1837.22 173.707 1835.74 174.266 1833.62 174.266V178.22C1836.47 178.22 1838.96 177.453 1840.9 175.732L1838.27 172.777ZM1919.9 203.212L1919.24 205.076L1919.25 205.079L1919.9 203.212ZM1907.22 195.382L1908.67 194.039L1908.67 194.033L1907.22 195.382ZM1908.47 185.564L1907.23 184.02L1907.21 184.032L1907.2 184.045L1908.47 185.564ZM1919.65 187.677L1920.99 186.219L1920.98 186.212L1919.65 187.677ZM1927.11 191.902L1927.76 190.037L1927.75 190.031L1927.73 190.026L1927.11 191.902ZM1951.96 187.677L1950.5 186.342L1950.5 186.342L1951.96 187.677ZM1957.06 171.52L1959.04 171.473L1959.04 171.471L1957.06 171.52ZM1956.93 166.549L1958.91 166.499L1958.78 161.323L1955.43 165.268L1956.93 166.549ZM1946.99 173.881L1946.24 172.054L1946.23 172.057L1946.22 172.06L1946.99 173.881ZM1909.33 167.916L1907.95 169.324L1907.95 169.329L1907.96 169.334L1909.33 167.916ZM1909.46 121.311L1910.83 122.739L1910.83 122.739L1909.46 121.311ZM1946.37 115.47L1947.16 113.658L1947.16 113.658L1946.37 115.47ZM1957.06 122.802L1955.66 124.2L1959.04 127.575V122.802H1957.06ZM1959.3 114.848L1957.98 113.37L1957.98 113.37L1959.3 114.848ZM1971.1 114.848L1969.75 116.288L1969.79 116.329L1969.84 116.367L1971.1 114.848ZM1968.99 189.292L1967.26 188.332L1967.26 188.343L1967.25 188.353L1968.99 189.292ZM1956.69 201.596L1955.73 199.866L1955.72 199.873L1956.69 201.596ZM1951.59 158.346L1952.92 159.809L1952.92 159.809L1951.59 158.346ZM1951.59 130.756L1950.26 132.219L1950.26 132.219L1951.59 130.756ZM1922.26 130.756L1923.64 132.171L1923.64 132.171L1922.26 130.756ZM1922.26 158.346L1920.88 159.762L1920.88 159.762L1922.26 158.346ZM1937.8 204.093C1931.53 204.093 1925.79 203.169 1920.55 201.345L1919.25 205.079C1924.95 207.065 1931.14 208.047 1937.8 208.047V204.093ZM1920.56 201.348C1915.4 199.521 1911.47 197.064 1908.67 194.039L1905.77 196.725C1909.1 200.328 1913.63 203.091 1919.24 205.076L1920.56 201.348ZM1908.67 194.033C1907.82 193.124 1907.46 192.188 1907.46 191.156H1903.51C1903.51 193.274 1904.3 195.154 1905.78 196.731L1908.67 194.033ZM1907.46 191.156C1907.46 189.815 1908.07 188.466 1909.73 187.083L1907.2 184.045C1904.88 185.976 1903.51 188.356 1903.51 191.156H1907.46ZM1909.7 187.108C1910.64 186.356 1911.54 186.05 1912.44 186.05V182.095C1910.53 182.095 1908.78 182.784 1907.23 184.02L1909.7 187.108ZM1912.44 186.05C1913.87 186.05 1915.81 186.865 1918.32 189.142L1920.98 186.212C1918.19 183.683 1915.32 182.095 1912.44 182.095V186.05ZM1918.31 189.134C1920.54 191.173 1923.28 192.71 1926.48 193.778L1927.73 190.026C1924.97 189.106 1922.74 187.826 1920.99 186.219L1918.31 189.134ZM1926.45 193.768C1929.74 194.924 1933.24 195.495 1936.93 195.495V191.541C1933.65 191.541 1930.6 191.035 1927.76 190.037L1926.45 193.768ZM1936.93 195.495C1943.81 195.495 1949.4 193.404 1953.42 189.011L1950.5 186.342C1947.4 189.737 1942.97 191.541 1936.93 191.541V195.495ZM1953.42 189.011C1957.42 184.637 1959.21 178.7 1959.04 171.473L1955.08 171.568C1955.24 178.095 1953.63 182.928 1950.5 186.342L1953.42 189.011ZM1959.04 171.471L1958.91 166.499L1954.96 166.598L1955.08 171.57L1959.04 171.471ZM1955.43 165.268C1952.8 168.357 1949.74 170.606 1946.24 172.054L1947.75 175.709C1951.86 174.008 1955.43 171.37 1958.44 167.829L1955.43 165.268ZM1946.22 172.06C1942.81 173.502 1938.49 174.266 1933.2 174.266V178.22C1938.84 178.22 1943.72 177.409 1947.76 175.703L1946.22 172.06ZM1933.2 174.266C1923.37 174.266 1915.97 171.598 1910.71 166.498L1907.96 169.334C1914.14 175.336 1922.64 178.22 1933.2 178.22V174.266ZM1910.72 166.508C1905.47 161.33 1902.74 154.098 1902.74 144.551H1898.78C1898.78 154.889 1901.77 163.234 1907.95 169.324L1910.72 166.508ZM1902.74 144.551C1902.74 135.011 1905.51 127.832 1910.83 122.739L1908.09 119.882C1901.81 125.892 1898.78 134.207 1898.78 144.551H1902.74ZM1910.83 122.739C1916.25 117.548 1923.86 114.837 1933.94 114.837V110.882C1923.14 110.882 1914.44 113.805 1908.09 119.883L1910.83 122.739ZM1933.94 114.837C1937.98 114.837 1941.85 115.65 1945.58 117.281L1947.16 113.658C1942.94 111.81 1938.53 110.882 1933.94 110.882V114.837ZM1945.58 117.281C1949.32 118.92 1952.68 121.221 1955.66 124.2L1958.46 121.404C1955.14 118.086 1951.37 115.499 1947.16 113.658L1945.58 117.281ZM1959.04 122.802V120.316H1955.08V122.802H1959.04ZM1959.04 120.316C1959.04 118.46 1959.61 117.214 1960.61 116.326L1957.98 113.37C1956 115.134 1955.08 117.533 1955.08 120.316H1959.04ZM1960.61 116.326C1961.66 115.396 1963.14 114.837 1965.26 114.837V110.882C1962.42 110.882 1959.92 111.649 1957.98 113.37L1960.61 116.326ZM1965.26 114.837C1967.39 114.837 1968.8 115.398 1969.75 116.288L1972.46 113.408C1970.59 111.647 1968.1 110.882 1965.26 110.882V114.837ZM1969.84 116.367C1970.77 117.147 1971.36 118.348 1971.36 120.316H1975.32C1975.32 117.479 1974.42 115.035 1972.37 113.329L1969.84 116.367ZM1971.36 120.316V171.52H1975.32V120.316H1971.36ZM1971.36 171.52C1971.36 177.85 1969.98 183.437 1967.26 188.332L1970.72 190.252C1973.8 184.708 1975.32 178.447 1975.32 171.52H1971.36ZM1967.25 188.353C1964.62 193.227 1960.8 197.06 1955.73 199.866L1957.64 203.326C1963.35 200.167 1967.73 195.797 1970.73 190.231L1967.25 188.353ZM1955.72 199.873C1950.76 202.659 1944.81 204.093 1937.8 204.093V208.047C1945.36 208.047 1952 206.499 1957.66 203.319L1955.72 199.873ZM1936.43 165.295C1943.23 165.295 1948.81 163.547 1952.92 159.809L1950.26 156.883C1947.08 159.774 1942.56 161.34 1936.43 161.34V165.295ZM1952.92 159.809C1957.06 156.048 1959.04 150.873 1959.04 144.551H1955.08C1955.08 149.994 1953.41 154.016 1950.26 156.883L1952.92 159.809ZM1959.04 144.551C1959.04 138.229 1957.06 133.054 1952.92 129.293L1950.26 132.219C1953.41 135.086 1955.08 139.108 1955.08 144.551H1959.04ZM1952.92 129.293C1948.81 125.556 1943.23 123.808 1936.43 123.808V127.762C1942.56 127.762 1947.08 129.328 1950.26 132.219L1952.92 129.293ZM1936.43 123.808C1930.01 123.808 1924.74 125.575 1920.88 129.341L1923.64 132.171C1926.57 129.309 1930.75 127.762 1936.43 127.762V123.808ZM1920.88 129.341C1917.01 133.112 1915.19 138.271 1915.19 144.551H1919.14C1919.14 139.066 1920.71 135.028 1923.64 132.171L1920.88 129.341ZM1915.19 144.551C1915.19 150.831 1917.01 155.99 1920.88 159.762L1923.64 156.931C1920.71 154.074 1919.14 150.037 1919.14 144.551H1915.19ZM1920.88 159.762C1924.74 163.528 1930.01 165.295 1936.43 165.295V161.34C1930.75 161.34 1926.57 159.793 1923.64 156.931L1920.88 159.762ZM1318.25 334.39L1317.39 336.174L1317.41 336.182L1317.43 336.189L1318.25 334.39ZM1305.2 323.205L1303.54 324.288L1303.54 324.288L1305.2 323.205ZM1305.2 289.898L1303.54 288.814L1303.54 288.814L1305.2 289.898ZM1318.25 278.837L1319.08 280.631L1319.09 280.626L1318.25 278.837ZM1356.65 278.837L1355.8 280.621L1355.81 280.628L1355.83 280.636L1356.65 278.837ZM1356.65 334.39L1357.48 336.185L1357.49 336.179L1356.65 334.39ZM1352.55 320.346L1351.23 318.869L1351.23 318.876L1351.22 318.883L1352.55 320.346ZM1352.55 292.756L1351.22 294.219L1351.23 294.227L1351.23 294.234L1352.55 292.756ZM1322.35 292.756L1321.03 291.278L1321.03 291.286L1321.02 291.293L1322.35 292.756ZM1322.35 320.346L1321.02 321.809L1321.03 321.817L1321.03 321.824L1322.35 320.346ZM1337.51 336.266C1330.54 336.266 1324.4 335.024 1319.07 332.591L1317.43 336.189C1323.36 338.893 1330.06 340.22 1337.51 340.22V336.266ZM1319.1 332.606C1313.85 330.099 1309.79 326.603 1306.85 322.121L1303.54 324.288C1306.9 329.418 1311.54 333.379 1317.39 336.174L1319.1 332.606ZM1306.85 322.121C1303.93 317.669 1302.45 312.502 1302.45 306.551H1298.5C1298.5 313.195 1300.16 319.13 1303.54 324.288L1306.85 322.121ZM1302.45 306.551C1302.45 300.601 1303.93 295.434 1306.85 290.981L1303.54 288.814C1300.16 293.972 1298.5 299.908 1298.5 306.551H1302.45ZM1306.85 290.981C1309.78 286.505 1313.84 283.055 1319.08 280.631L1317.42 277.042C1311.55 279.755 1306.91 283.679 1303.54 288.814L1306.85 290.981ZM1319.09 280.626C1324.42 278.116 1330.55 276.837 1337.51 276.837V272.882C1330.06 272.882 1323.34 274.254 1317.4 277.048L1319.09 280.626ZM1337.51 276.837C1344.47 276.837 1350.55 278.117 1355.8 280.621L1357.5 277.052C1351.64 274.254 1344.96 272.882 1337.51 272.882V276.837ZM1355.83 280.636C1361.15 283.062 1365.24 286.512 1368.17 290.981L1371.48 288.814C1368.11 283.672 1363.42 279.748 1357.47 277.038L1355.83 280.636ZM1368.17 290.981C1371.09 295.434 1372.57 300.601 1372.57 306.551H1376.52C1376.52 299.908 1374.86 293.972 1371.48 288.814L1368.17 290.981ZM1372.57 306.551C1372.57 312.502 1371.09 317.669 1368.17 322.121L1371.48 324.288C1374.86 319.13 1376.52 313.195 1376.52 306.551H1372.57ZM1368.17 322.121C1365.24 326.596 1361.14 330.092 1355.81 332.601L1357.49 336.179C1363.43 333.386 1368.11 329.425 1371.48 324.288L1368.17 322.121ZM1355.82 332.596C1350.57 335.024 1344.48 336.266 1337.51 336.266V340.22C1344.95 340.22 1351.63 338.893 1357.48 336.185L1355.82 332.596ZM1337.51 327.295C1344.23 327.295 1349.77 325.543 1353.88 321.809L1351.22 318.883C1348.03 321.778 1343.55 323.34 1337.51 323.34V327.295ZM1353.86 321.824C1358.09 318.067 1360.12 312.888 1360.12 306.551H1356.16C1356.16 311.98 1354.46 315.998 1351.23 318.869L1353.86 321.824ZM1360.12 306.551C1360.12 300.215 1358.09 295.036 1353.86 291.278L1351.23 294.234C1354.46 297.105 1356.16 301.122 1356.16 306.551H1360.12ZM1353.88 291.293C1349.77 287.56 1344.23 285.808 1337.51 285.808V289.762C1343.55 289.762 1348.03 291.324 1351.22 294.219L1353.88 291.293ZM1337.51 285.808C1330.78 285.808 1325.22 287.561 1321.03 291.278L1323.66 294.234C1326.94 291.323 1331.48 289.762 1337.51 289.762V285.808ZM1321.02 291.293C1316.88 295.054 1314.9 300.229 1314.9 306.551H1318.86C1318.86 301.108 1320.52 297.086 1323.68 294.219L1321.02 291.293ZM1314.9 306.551C1314.9 312.873 1316.88 318.048 1321.02 321.809L1323.68 318.883C1320.52 316.016 1318.86 311.994 1318.86 306.551H1314.9ZM1321.03 321.824C1325.22 325.542 1330.78 327.295 1337.51 327.295V323.34C1331.48 323.34 1326.94 321.779 1323.66 318.869L1321.03 321.824ZM1385.02 336.254L1383.67 337.694L1383.67 337.694L1385.02 336.254ZM1384.9 276.848L1386.25 278.291L1386.26 278.288L1384.9 276.848ZM1396.58 276.848L1397.94 275.408L1397.94 275.408L1396.58 276.848ZM1398.7 285.921H1396.72V291.57L1400.24 287.154L1398.7 285.921ZM1441.57 282.441L1440.1 283.765L1440.12 283.777L1440.13 283.79L1441.57 282.441ZM1446.3 336.254L1447.61 337.732L1447.61 337.732L1446.3 336.254ZM1434.36 336.254L1433.01 337.694L1433.01 337.694L1434.36 336.254ZM1404.41 293.377L1405.84 294.743L1405.85 294.735L1405.86 294.727L1404.41 293.377ZM1396.96 336.254L1398.27 337.732L1398.27 337.732L1396.96 336.254ZM1390.99 336.266C1388.76 336.266 1387.31 335.694 1386.38 334.815L1383.67 337.694C1385.55 339.466 1388.09 340.22 1390.99 340.22V336.266ZM1386.38 334.815C1385.45 333.936 1384.89 332.678 1384.89 330.786H1380.93C1380.93 333.534 1381.79 335.921 1383.67 337.694L1386.38 334.815ZM1384.89 330.786V282.316H1380.93V330.786H1384.89ZM1384.89 282.316C1384.89 280.276 1385.44 279.05 1386.25 278.291L1383.55 275.406C1381.71 277.132 1380.93 279.552 1380.93 282.316H1384.89ZM1386.26 278.288C1387.2 277.398 1388.61 276.837 1390.74 276.837V272.882C1387.9 272.882 1385.42 273.647 1383.55 275.408L1386.26 278.288ZM1390.74 276.837C1392.87 276.837 1394.28 277.398 1395.23 278.288L1397.94 275.408C1396.07 273.647 1393.58 272.882 1390.74 272.882V276.837ZM1395.23 278.288C1396.16 279.166 1396.72 280.424 1396.72 282.316H1400.67C1400.67 279.569 1399.82 277.181 1397.94 275.408L1395.23 278.288ZM1396.72 282.316V285.921H1400.67V282.316H1396.72ZM1400.24 287.154C1405.72 280.292 1413.16 276.837 1422.81 276.837V272.882C1412.07 272.882 1403.44 276.802 1397.15 284.688L1400.24 287.154ZM1422.81 276.837C1430.3 276.837 1435.99 279.198 1440.1 283.765L1443.04 281.117C1438.04 275.576 1431.22 272.882 1422.81 272.882V276.837ZM1440.13 283.79C1444.34 288.304 1446.56 294.568 1446.56 302.823H1450.51C1450.51 293.844 1448.08 286.519 1443.02 281.092L1440.13 283.79ZM1446.56 302.823V330.786H1450.51V302.823H1446.56ZM1446.56 330.786C1446.56 332.642 1445.98 333.888 1444.98 334.777L1447.61 337.732C1449.59 335.969 1450.51 333.569 1450.51 330.786H1446.56ZM1444.98 334.777C1443.93 335.707 1442.45 336.266 1440.33 336.266V340.22C1443.18 340.22 1445.67 339.453 1447.61 337.732L1444.98 334.777ZM1440.33 336.266C1438.1 336.266 1436.65 335.694 1435.72 334.815L1433.01 337.694C1434.89 339.466 1437.43 340.22 1440.33 340.22V336.266ZM1435.72 334.815C1434.79 333.936 1434.23 332.678 1434.23 330.786H1430.27C1430.27 333.534 1431.13 335.921 1433.01 337.694L1435.72 334.815ZM1434.23 330.786V302.823H1430.27V330.786H1434.23ZM1434.23 302.823C1434.23 297.786 1432.99 293.579 1430.26 290.46L1427.28 293.064C1429.19 295.247 1430.27 298.414 1430.27 302.823H1434.23ZM1430.26 290.46C1427.5 287.303 1423.68 285.808 1419.08 285.808V289.762C1422.76 289.762 1425.41 290.918 1427.28 293.064L1430.26 290.46ZM1419.08 285.808C1412.37 285.808 1406.91 287.809 1402.97 292.028L1405.86 294.727C1408.88 291.49 1413.19 289.762 1419.08 289.762V285.808ZM1402.98 292.012C1399.05 296.13 1397.22 301.817 1397.22 308.788H1401.17C1401.17 302.503 1402.81 297.916 1405.84 294.743L1402.98 292.012ZM1397.22 308.788V330.786H1401.17V308.788H1397.22ZM1397.22 330.786C1397.22 332.642 1396.64 333.888 1395.64 334.777L1398.27 337.732C1400.25 335.969 1401.17 333.569 1401.17 330.786H1397.22ZM1395.64 334.777C1394.6 335.707 1393.12 336.266 1390.99 336.266V340.22C1393.84 340.22 1396.33 339.453 1398.27 337.732L1395.64 334.777ZM1506.92 365.212L1507.63 363.366L1507.62 363.362L1507.61 363.359L1506.92 365.212ZM1495.61 357.506L1494.04 358.707L1494.05 358.725L1494.07 358.741L1495.61 357.506ZM1496.85 347.688L1495.62 346.144L1495.59 346.17L1495.56 346.196L1496.85 347.688ZM1507.42 349.552L1505.97 350.896L1505.97 350.903L1507.42 349.552ZM1536.38 350.547L1534.98 349.149L1534.96 349.167L1534.94 349.187L1536.38 350.547ZM1540.97 331.78H1542.95V327.147L1539.61 330.353L1540.97 331.78ZM1533.27 336.503L1533.95 338.358L1533.97 338.35L1533.99 338.342L1533.27 336.503ZM1500.09 330.04L1498.72 331.469L1498.72 331.474L1498.73 331.479L1500.09 330.04ZM1493.75 276.848L1492.47 275.336L1492.47 275.336L1493.75 276.848ZM1505.31 276.972L1503.99 278.446L1504.01 278.466L1504.03 278.485L1505.31 276.972ZM1512.02 320.844L1510.53 322.145L1510.54 322.156L1510.55 322.166L1512.02 320.844ZM1536.13 320.844L1537.63 322.124L1537.63 322.124L1536.13 320.844ZM1542.47 277.097L1543.86 278.495L1543.86 278.495L1542.47 277.097ZM1554.52 277.097L1553.08 278.454L1553.1 278.475L1553.12 278.495L1554.52 277.097ZM1547.81 359.246L1546.42 357.838L1546.41 357.848L1546.4 357.858L1547.81 359.246ZM1523.45 366.093C1517.61 366.093 1512.35 365.174 1507.63 363.366L1506.21 367.058C1511.44 369.061 1517.19 370.047 1523.45 370.047V366.093ZM1507.61 363.359C1502.98 361.633 1499.54 359.249 1497.16 356.271L1494.07 358.741C1496.99 362.392 1501.08 365.145 1506.23 367.064L1507.61 363.359ZM1497.18 356.305C1496.32 355.174 1495.97 354.136 1495.97 353.156H1492.02C1492.02 355.16 1492.75 357.021 1494.04 358.707L1497.18 356.305ZM1495.97 353.156C1495.97 351.888 1496.55 350.571 1498.15 349.18L1495.56 346.196C1493.34 348.12 1492.02 350.448 1492.02 353.156H1495.97ZM1498.09 349.232C1499.01 348.498 1499.94 348.174 1500.96 348.174V344.22C1498.98 344.22 1497.19 344.89 1495.62 346.144L1498.09 349.232ZM1500.96 348.174C1502.46 348.174 1504.13 348.911 1505.97 350.896L1508.87 348.209C1506.56 345.72 1503.92 344.22 1500.96 344.22V348.174ZM1505.97 350.903C1510.02 355.23 1515.84 357.246 1523.08 357.246V353.292C1516.57 353.292 1511.94 351.497 1508.86 348.202L1505.97 350.903ZM1523.08 357.246C1529.3 357.246 1534.34 355.574 1537.81 351.906L1534.94 349.187C1532.45 351.816 1528.62 353.292 1523.08 353.292V357.246ZM1537.77 351.945C1541.33 348.387 1542.95 343.288 1542.95 337H1539C1539 342.642 1537.55 346.575 1534.98 349.149L1537.77 351.945ZM1542.95 337V331.78H1539V337H1542.95ZM1539.61 330.353C1537.84 332.045 1535.51 333.494 1532.54 334.664L1533.99 338.342C1537.33 337.026 1540.13 335.327 1542.34 333.208L1539.61 330.353ZM1532.58 334.648C1529.61 335.742 1526.86 336.266 1524.32 336.266V340.22C1527.41 340.22 1530.63 339.584 1533.95 338.358L1532.58 334.648ZM1524.32 336.266C1514.31 336.266 1506.78 333.63 1501.44 328.602L1498.73 331.479C1505 337.387 1513.62 340.22 1524.32 340.22V336.266ZM1501.45 328.612C1496.13 323.516 1493.36 316.376 1493.36 306.924H1489.41C1489.41 317.191 1492.44 325.462 1498.72 331.469L1501.45 328.612ZM1493.36 306.924V281.819H1489.41V306.924H1493.36ZM1493.36 281.819C1493.36 280.437 1493.87 279.326 1495.02 278.361L1492.47 275.336C1490.47 277.022 1489.41 279.225 1489.41 281.819H1493.36ZM1495.02 278.361C1496.19 277.373 1497.67 276.837 1499.59 276.837V272.882C1496.87 272.882 1494.45 273.672 1492.47 275.336L1495.02 278.361ZM1499.59 276.837C1501.37 276.837 1502.8 277.382 1503.99 278.446L1506.62 275.499C1504.66 273.746 1502.28 272.882 1499.59 272.882V276.837ZM1504.03 278.485C1505.2 279.469 1505.69 280.548 1505.69 281.819H1509.64C1509.64 279.279 1508.56 277.127 1506.58 275.46L1504.03 278.485ZM1505.69 281.819V306.924H1509.64V281.819H1505.69ZM1505.69 306.924C1505.69 313.197 1507.22 318.36 1510.53 322.145L1513.5 319.542C1511.02 316.699 1509.64 312.582 1509.64 306.924H1505.69ZM1510.55 322.166C1513.97 325.969 1518.64 327.792 1524.32 327.792V323.838C1519.56 323.838 1516.03 322.346 1513.49 319.521L1510.55 322.166ZM1524.32 327.792C1529.85 327.792 1534.38 325.954 1537.63 322.124L1534.62 319.563C1532.24 322.361 1528.9 323.838 1524.32 323.838V327.792ZM1537.63 322.124C1540.85 318.339 1542.33 313.185 1542.33 306.924H1538.38C1538.38 312.594 1537.04 316.72 1534.62 319.563L1537.63 322.124ZM1542.33 306.924V283.186H1538.38V306.924H1542.33ZM1542.33 283.186C1542.33 280.88 1542.94 279.422 1543.86 278.495L1541.07 275.699C1539.18 277.588 1538.38 280.19 1538.38 283.186H1542.33ZM1543.86 278.495C1544.91 277.452 1546.39 276.837 1548.55 276.837V272.882C1545.58 272.882 1543.01 273.758 1541.07 275.699L1543.86 278.495ZM1548.55 276.837C1550.73 276.837 1552.14 277.453 1553.08 278.454L1555.96 275.739C1554.09 273.757 1551.52 272.882 1548.55 272.882V276.837ZM1553.12 278.495C1554.05 279.422 1554.66 280.88 1554.66 283.186H1558.61C1558.61 280.19 1557.81 277.588 1555.92 275.699L1553.12 278.495ZM1554.66 283.186V334.887H1558.61V283.186H1554.66ZM1554.66 334.887C1554.66 344.945 1551.83 352.502 1546.42 357.838L1549.2 360.654C1555.55 354.391 1558.61 345.709 1558.61 334.887H1554.66ZM1546.4 357.858C1541.07 363.271 1533.51 366.093 1523.45 366.093V370.047C1534.27 370.047 1542.95 366.987 1549.22 360.634L1546.4 357.858ZM1584.65 334.39L1583.8 336.174L1583.81 336.182L1583.83 336.189L1584.65 334.39ZM1571.6 323.205L1569.95 324.288L1569.95 324.288L1571.6 323.205ZM1571.6 289.898L1569.95 288.814L1569.95 288.814L1571.6 289.898ZM1584.65 278.837L1585.48 280.631L1585.49 280.626L1584.65 278.837ZM1623.05 278.837L1622.2 280.621L1622.22 280.628L1622.23 280.636L1623.05 278.837ZM1623.05 334.39L1623.88 336.185L1623.89 336.179L1623.05 334.39ZM1618.95 320.346L1617.64 318.869L1617.63 318.876L1617.62 318.883L1618.95 320.346ZM1618.95 292.756L1617.62 294.219L1617.63 294.227L1617.64 294.234L1618.95 292.756ZM1588.75 292.756L1587.44 291.278L1587.43 291.286L1587.42 291.293L1588.75 292.756ZM1588.75 320.346L1587.42 321.809L1587.43 321.817L1587.44 321.824L1588.75 320.346ZM1603.91 336.266C1596.94 336.266 1590.81 335.024 1585.47 332.591L1583.83 336.189C1589.76 338.893 1596.47 340.22 1603.91 340.22V336.266ZM1585.5 332.606C1580.25 330.099 1576.19 326.603 1573.25 322.121L1569.95 324.288C1573.31 329.418 1577.94 333.379 1583.8 336.174L1585.5 332.606ZM1573.25 322.121C1570.34 317.669 1568.85 312.502 1568.85 306.551H1564.9C1564.9 313.195 1566.57 319.13 1569.95 324.288L1573.25 322.121ZM1568.85 306.551C1568.85 300.601 1570.34 295.434 1573.25 290.981L1569.95 288.814C1566.57 293.972 1564.9 299.908 1564.9 306.551H1568.85ZM1573.25 290.981C1576.19 286.505 1580.24 283.055 1585.48 280.631L1583.82 277.042C1577.95 279.755 1573.31 283.679 1569.95 288.814L1573.25 290.981ZM1585.49 280.626C1590.82 278.116 1596.95 276.837 1603.91 276.837V272.882C1596.46 272.882 1589.74 274.254 1583.81 277.048L1585.49 280.626ZM1603.91 276.837C1610.88 276.837 1616.96 278.117 1622.2 280.621L1623.9 277.052C1618.04 274.254 1611.37 272.882 1603.91 272.882V276.837ZM1622.23 280.636C1627.55 283.062 1631.64 286.512 1634.57 290.981L1637.88 288.814C1634.51 283.672 1629.82 279.748 1623.87 277.038L1622.23 280.636ZM1634.57 290.981C1637.49 295.434 1638.97 300.601 1638.97 306.551H1642.93C1642.93 299.908 1641.26 293.972 1637.88 288.814L1634.57 290.981ZM1638.97 306.551C1638.97 312.502 1637.49 317.669 1634.57 322.121L1637.88 324.288C1641.26 319.13 1642.93 313.195 1642.93 306.551H1638.97ZM1634.57 322.121C1631.64 326.596 1627.54 330.092 1622.21 332.601L1623.89 336.179C1629.83 333.386 1634.51 329.425 1637.88 324.288L1634.57 322.121ZM1622.22 332.596C1616.97 335.024 1610.88 336.266 1603.91 336.266V340.22C1611.36 340.22 1618.03 338.893 1623.88 336.185L1622.22 332.596ZM1603.91 327.295C1610.63 327.295 1616.17 325.543 1620.28 321.809L1617.62 318.883C1614.44 321.778 1609.95 323.34 1603.91 323.34V327.295ZM1620.26 321.824C1624.49 318.067 1626.52 312.888 1626.52 306.551H1622.57C1622.57 311.98 1620.87 315.998 1617.64 318.869L1620.26 321.824ZM1626.52 306.551C1626.52 300.215 1624.49 295.036 1620.26 291.278L1617.64 294.234C1620.87 297.105 1622.57 301.122 1622.57 306.551H1626.52ZM1620.28 291.293C1616.17 287.56 1610.63 285.808 1603.91 285.808V289.762C1609.95 289.762 1614.44 291.324 1617.62 294.219L1620.28 291.293ZM1603.91 285.808C1597.19 285.808 1591.62 287.561 1587.44 291.278L1590.06 294.234C1593.34 291.323 1597.88 289.762 1603.91 289.762V285.808ZM1587.42 291.293C1583.28 295.054 1581.3 300.229 1581.3 306.551H1585.26C1585.26 301.108 1586.93 297.086 1590.08 294.219L1587.42 291.293ZM1581.3 306.551C1581.3 312.873 1583.28 318.048 1587.42 321.809L1590.08 318.883C1586.93 316.016 1585.26 311.994 1585.26 306.551H1581.3ZM1587.44 321.824C1591.62 325.542 1597.19 327.295 1603.91 327.295V323.34C1597.88 323.34 1593.34 321.779 1590.06 318.869L1587.44 321.824ZM1657.6 330.91L1656.16 332.272L1656.18 332.284L1656.19 332.296L1657.6 330.91ZM1652.75 276.848L1651.44 275.37L1651.44 275.37L1652.75 276.848ZM1664.68 276.848L1666.04 275.408L1666.04 275.408L1664.68 276.848ZM1670.52 321.341L1669.08 322.693L1669.09 322.705L1669.1 322.716L1670.52 321.341ZM1694.88 319.725L1693.4 318.411L1693.4 318.421L1693.39 318.43L1694.88 319.725ZM1702.09 276.848L1700.78 275.37L1700.78 275.37L1702.09 276.848ZM1714.02 276.848L1715.38 275.408L1715.38 275.408L1714.02 276.848ZM1714.02 336.379L1715.37 337.821L1715.38 337.818L1714.02 336.379ZM1702.46 336.254L1701.11 337.694L1701.11 337.694L1702.46 336.254ZM1700.35 327.182H1702.33V321.569L1698.81 325.943L1700.35 327.182ZM1690.16 335.633L1691.01 337.417L1691.02 337.413L1691.03 337.409L1690.16 335.633ZM1677.61 336.266C1669.47 336.266 1663.35 333.946 1659.01 329.524L1656.19 332.296C1661.45 337.651 1668.68 340.22 1677.61 340.22V336.266ZM1659.03 329.548C1654.75 325.04 1652.49 318.703 1652.49 310.28H1648.54C1648.54 319.421 1651 326.839 1656.16 332.272L1659.03 329.548ZM1652.49 310.28V282.316H1648.54V310.28H1652.49ZM1652.49 282.316C1652.49 280.46 1653.07 279.214 1654.06 278.326L1651.44 275.37C1649.45 277.134 1648.54 279.533 1648.54 282.316H1652.49ZM1654.06 278.326C1655.11 277.396 1656.59 276.837 1658.72 276.837V272.882C1655.87 272.882 1653.37 273.649 1651.44 275.37L1654.06 278.326ZM1658.72 276.837C1660.95 276.837 1662.39 277.408 1663.33 278.288L1666.04 275.408C1664.15 273.637 1661.62 272.882 1658.72 272.882V276.837ZM1663.33 278.288C1664.26 279.166 1664.82 280.424 1664.82 282.316H1668.77C1668.77 279.569 1667.92 277.181 1666.04 275.408L1663.33 278.288ZM1664.82 282.316V310.28H1668.77V282.316H1664.82ZM1664.82 310.28C1664.82 315.349 1666.16 319.576 1669.08 322.693L1671.97 319.988C1669.92 317.803 1668.77 314.655 1668.77 310.28H1664.82ZM1669.1 322.716C1672.13 325.839 1676.25 327.295 1681.21 327.295V323.34C1677.06 323.34 1674.06 322.145 1671.94 319.965L1669.1 322.716ZM1681.21 327.295C1687.55 327.295 1692.7 325.265 1696.38 321.02L1693.39 318.43C1690.6 321.641 1686.64 323.34 1681.21 323.34V327.295ZM1696.36 321.039C1700.09 316.847 1701.83 311.19 1701.83 304.314H1697.88C1697.88 310.53 1696.31 315.146 1693.4 318.411L1696.36 321.039ZM1701.83 304.314V282.316H1697.88V304.314H1701.83ZM1701.83 282.316C1701.83 280.46 1702.4 279.214 1703.4 278.326L1700.78 275.37C1698.79 277.134 1697.88 279.533 1697.88 282.316H1701.83ZM1703.4 278.326C1704.45 277.396 1705.93 276.837 1708.06 276.837V272.882C1705.21 272.882 1702.71 273.649 1700.78 275.37L1703.4 278.326ZM1708.06 276.837C1710.29 276.837 1711.73 277.408 1712.67 278.288L1715.38 275.408C1713.49 273.637 1710.96 272.882 1708.06 272.882V276.837ZM1712.67 278.288C1713.6 279.166 1714.16 280.424 1714.16 282.316H1718.11C1718.11 279.569 1717.26 277.181 1715.38 275.408L1712.67 278.288ZM1714.16 282.316V330.786H1718.11V282.316H1714.16ZM1714.16 330.786C1714.16 332.785 1713.59 334.074 1712.67 334.939L1715.38 337.818C1717.27 336.032 1718.11 333.593 1718.11 330.786H1714.16ZM1712.67 334.936C1711.83 335.726 1710.47 336.266 1708.3 336.266V340.22C1711.1 340.22 1713.56 339.517 1715.37 337.821L1712.67 334.936ZM1708.3 336.266C1706.17 336.266 1704.76 335.705 1703.82 334.815L1701.11 337.694C1702.98 339.455 1705.46 340.22 1708.3 340.22V336.266ZM1703.82 334.815C1702.88 333.936 1702.33 332.678 1702.33 330.786H1698.37C1698.37 333.534 1699.22 335.921 1701.11 337.694L1703.82 334.815ZM1702.33 330.786V327.182H1698.37V330.786H1702.33ZM1698.81 325.943C1695.89 329.568 1692.72 332.182 1689.29 333.857L1691.03 337.409C1695.06 335.438 1698.68 332.418 1701.89 328.421L1698.81 325.943ZM1689.31 333.849C1685.97 335.442 1682.08 336.266 1677.61 336.266V340.22C1682.57 340.22 1687.06 339.304 1691.01 337.417L1689.31 333.849ZM1729.71 336.254L1728.35 337.694L1728.35 337.694L1729.71 336.254ZM1729.59 276.848L1730.94 278.291L1730.94 278.288L1729.59 276.848ZM1741.27 276.848L1742.62 275.408L1742.62 275.408L1741.27 276.848ZM1743.38 286.418H1741.4V292.197L1744.94 287.629L1743.38 286.418ZM1752.33 278.837L1753.23 280.596L1753.24 280.592L1753.25 280.588L1752.33 278.837ZM1772.34 277.842L1771.08 279.369L1771.13 279.409L1771.18 279.445L1772.34 277.842ZM1772.34 287.412L1773.54 288.983L1773.55 288.978L1773.55 288.973L1772.34 287.412ZM1748.72 294.372L1747.28 293.025L1747.28 293.026L1748.72 294.372ZM1741.64 336.254L1742.95 337.732L1742.95 337.732L1741.64 336.254ZM1735.68 336.266C1733.44 336.266 1732 335.694 1731.06 334.815L1728.35 337.694C1730.24 339.466 1732.77 340.22 1735.68 340.22V336.266ZM1731.06 334.815C1730.13 333.936 1729.57 332.678 1729.57 330.786H1725.62C1725.62 333.534 1726.47 335.921 1728.35 337.694L1731.06 334.815ZM1729.57 330.786V282.316H1725.62V330.786H1729.57ZM1729.57 282.316C1729.57 280.276 1730.13 279.05 1730.94 278.291L1728.23 275.406C1726.39 277.132 1725.62 279.552 1725.62 282.316H1729.57ZM1730.94 278.288C1731.89 277.398 1733.3 276.837 1735.43 276.837V272.882C1732.59 272.882 1730.1 273.647 1728.23 275.408L1730.94 278.288ZM1735.43 276.837C1737.56 276.837 1738.97 277.398 1739.91 278.288L1742.62 275.408C1740.75 273.647 1738.27 272.882 1735.43 272.882V276.837ZM1739.91 278.288C1740.85 279.166 1741.4 280.424 1741.4 282.316H1745.36C1745.36 279.569 1744.51 277.181 1742.62 275.408L1739.91 278.288ZM1741.4 282.316V286.418H1745.36V282.316H1741.4ZM1744.94 287.629C1747.35 284.521 1750.12 282.192 1753.23 280.596L1751.43 277.077C1747.75 278.962 1744.55 281.686 1741.82 285.207L1744.94 287.629ZM1753.25 280.588C1756.44 278.915 1759.85 278.08 1763.51 278.08V274.125C1759.22 274.125 1755.18 275.112 1751.41 277.085L1753.25 280.588ZM1763.51 278.08H1766.25V274.125H1763.51V278.08ZM1766.25 278.08C1768.64 278.08 1770.16 278.607 1771.08 279.369L1773.59 276.316C1771.7 274.758 1769.16 274.125 1766.25 274.125V278.08ZM1771.18 279.445C1772.09 280.1 1772.6 281.036 1772.6 282.565H1776.55C1776.55 279.951 1775.57 277.739 1773.5 276.24L1771.18 279.445ZM1772.6 282.565C1772.6 284.094 1772.08 285.105 1771.12 285.851L1773.55 288.973C1775.58 287.399 1776.55 285.179 1776.55 282.565H1772.6ZM1771.14 285.841C1770.21 286.553 1768.67 287.05 1766.25 287.05V291.005C1769.13 291.005 1771.65 290.426 1773.54 288.983L1771.14 285.841ZM1766.25 287.05H1762.02V291.005H1766.25V287.05ZM1762.02 287.05C1756.01 287.05 1751.02 289.002 1747.28 293.025L1750.17 295.718C1753.06 292.616 1756.94 291.005 1762.02 291.005V287.05ZM1747.28 293.026C1743.61 296.969 1741.9 302.308 1741.9 308.788H1745.85C1745.85 303.006 1747.37 298.734 1750.17 295.717L1747.28 293.026ZM1741.9 308.788V330.786H1745.85V308.788H1741.9ZM1741.9 330.786C1741.9 332.642 1741.33 333.888 1740.33 334.777L1742.95 337.732C1744.94 335.969 1745.85 333.569 1745.85 330.786H1741.9ZM1740.33 334.777C1739.28 335.707 1737.8 336.266 1735.68 336.266V340.22C1738.52 340.22 1741.02 339.453 1742.95 337.732L1740.33 334.777ZM1305.2 498.254L1303.88 499.732L1303.88 499.732L1305.2 498.254ZM1307.93 416.85L1306.57 415.418L1306.56 415.426L1306.55 415.435L1307.93 416.85ZM1366.34 413.743L1365.04 415.231L1365.07 415.255L1365.1 415.278L1366.34 413.743ZM1366.22 423.189L1367.47 424.723L1367.48 424.715L1366.22 423.189ZM1320.86 426.42L1319.4 425.079L1319.37 425.11L1319.35 425.143L1320.86 426.42ZM1319.49 449.412H1317.51V451.389H1319.49V449.412ZM1356.9 451.152L1355.6 452.64L1355.62 452.664L1355.65 452.686L1356.9 451.152ZM1356.77 460.597L1358.02 462.132L1358.03 462.124L1356.77 460.597ZM1319.49 462.213V460.236H1317.51V462.213H1319.49ZM1317.13 498.254L1318.44 499.732L1318.45 499.728L1317.13 498.254ZM1311.16 498.266C1309.04 498.266 1307.56 497.707 1306.51 496.777L1303.88 499.732C1305.82 501.453 1308.32 502.22 1311.16 502.22V498.266ZM1306.51 496.777C1305.51 495.888 1304.94 494.642 1304.94 492.786H1300.98C1300.98 495.569 1301.9 497.969 1303.88 499.732L1306.51 496.777ZM1304.94 492.786V430.397H1300.98V492.786H1304.94ZM1304.94 430.397C1304.94 424.987 1306.47 421.036 1309.31 418.266L1306.55 415.435C1302.76 419.127 1300.98 424.207 1300.98 430.397H1304.94ZM1309.29 418.283C1312.23 415.489 1316.37 413.981 1321.97 413.981V410.026C1315.65 410.026 1310.43 411.749 1306.57 415.418L1309.29 418.283ZM1321.97 413.981H1360.63V410.026H1321.97V413.981ZM1360.63 413.981C1362.83 413.981 1364.2 414.495 1365.04 415.231L1367.64 412.255C1365.83 410.672 1363.4 410.026 1360.63 410.026V413.981ZM1365.1 415.278C1365.86 415.9 1366.35 416.85 1366.35 418.466H1370.31C1370.31 415.939 1369.48 413.742 1367.59 412.209L1365.1 415.278ZM1366.35 418.466C1366.35 419.924 1365.87 420.915 1364.96 421.663L1367.48 424.715C1369.38 423.143 1370.31 420.985 1370.31 418.466H1366.35ZM1364.97 421.654C1364.12 422.348 1362.76 422.827 1360.63 422.827V426.782C1363.3 426.782 1365.67 426.183 1367.47 424.723L1364.97 421.654ZM1360.63 422.827H1324.83V426.782H1360.63V422.827ZM1324.83 422.827C1322.7 422.827 1320.82 423.541 1319.4 425.079L1322.31 427.761C1322.88 427.144 1323.65 426.782 1324.83 426.782V422.827ZM1319.35 425.143C1318.04 426.685 1317.51 428.685 1317.51 430.894H1321.47C1321.47 429.292 1321.85 428.309 1322.37 427.697L1319.35 425.143ZM1317.51 430.894V449.412H1321.47V430.894H1317.51ZM1319.49 451.389H1351.18V447.435H1319.49V451.389ZM1351.18 451.389C1353.38 451.389 1354.75 451.904 1355.6 452.64L1358.2 449.664C1356.39 448.08 1353.95 447.435 1351.18 447.435V451.389ZM1355.65 452.686C1356.42 453.308 1356.91 454.259 1356.91 455.875H1360.86C1360.86 453.348 1360.03 451.15 1358.14 449.617L1355.65 452.686ZM1356.91 455.875C1356.91 457.333 1356.42 458.323 1355.52 459.071L1358.03 462.124C1359.94 460.551 1360.86 458.394 1360.86 455.875H1356.91ZM1355.53 459.063C1354.67 459.757 1353.31 460.236 1351.18 460.236V464.19C1353.86 464.19 1356.22 463.592 1358.02 462.132L1355.53 459.063ZM1351.18 460.236H1319.49V464.19H1351.18V460.236ZM1317.51 462.213V492.786H1321.47V462.213H1317.51ZM1317.51 492.786C1317.51 494.498 1316.94 495.772 1315.81 496.781L1318.45 499.728C1320.47 497.92 1321.47 495.548 1321.47 492.786H1317.51ZM1315.81 496.777C1314.77 497.707 1313.29 498.266 1311.16 498.266V502.22C1314.01 502.22 1316.51 501.453 1318.44 499.732L1315.81 496.777ZM1375.69 426.669L1374.33 428.099L1374.36 428.131L1374.4 428.161L1375.69 426.669ZM1375.69 413.371L1377.02 414.834L1377.03 414.831L1375.69 413.371ZM1390.61 413.371L1389.27 414.831L1389.31 414.861L1389.34 414.89L1390.61 413.371ZM1390.61 426.669L1391.91 428.161L1391.91 428.157L1390.61 426.669ZM1377.31 498.254L1375.95 499.694L1375.95 499.694L1377.31 498.254ZM1377.31 438.848L1375.95 437.408L1375.95 437.408L1377.31 438.848ZM1389.24 438.848L1390.55 437.37L1390.55 437.37L1389.24 438.848ZM1389.24 498.254L1387.93 496.777L1387.93 496.777L1389.24 498.254ZM1383.15 427.177C1380.46 427.177 1378.46 426.457 1376.99 425.177L1374.4 428.161C1376.74 430.194 1379.72 431.131 1383.15 431.131V427.177ZM1377.06 425.238C1375.66 423.905 1374.94 422.202 1374.94 419.957H1370.98C1370.98 423.181 1372.08 425.952 1374.33 428.099L1377.06 425.238ZM1374.94 419.957C1374.94 417.712 1375.66 416.072 1377.02 414.834L1374.36 411.908C1372.08 413.983 1370.98 416.734 1370.98 419.957H1374.94ZM1377.03 414.831C1378.5 413.484 1380.48 412.738 1383.15 412.738V408.783C1379.69 408.783 1376.7 409.777 1374.36 411.91L1377.03 414.831ZM1383.15 412.738C1385.82 412.738 1387.8 413.484 1389.27 414.831L1391.94 411.91C1389.6 409.777 1386.61 408.783 1383.15 408.783V412.738ZM1389.34 414.89C1390.85 416.147 1391.61 417.772 1391.61 419.957H1395.57C1395.57 416.674 1394.34 413.908 1391.87 411.852L1389.34 414.89ZM1391.61 419.957C1391.61 422.144 1390.85 423.831 1389.31 425.181L1391.91 428.157C1394.34 426.027 1395.57 423.239 1395.57 419.957H1391.61ZM1389.31 425.177C1387.84 426.457 1385.85 427.177 1383.15 427.177V431.131C1386.59 431.131 1389.57 430.194 1391.91 428.161L1389.31 425.177ZM1383.28 498.266C1381.04 498.266 1379.6 497.694 1378.66 496.815L1375.95 499.694C1377.84 501.466 1380.37 502.22 1383.28 502.22V498.266ZM1378.66 496.815C1377.73 495.936 1377.17 494.678 1377.17 492.786H1373.22C1373.22 495.534 1374.07 497.921 1375.95 499.694L1378.66 496.815ZM1377.17 492.786V444.316H1373.22V492.786H1377.17ZM1377.17 444.316C1377.17 442.424 1377.73 441.166 1378.66 440.288L1375.95 437.408C1374.07 439.181 1373.22 441.569 1373.22 444.316H1377.17ZM1378.66 440.288C1379.6 439.408 1381.04 438.837 1383.28 438.837V434.882C1380.37 434.882 1377.84 435.637 1375.95 437.408L1378.66 440.288ZM1383.28 438.837C1385.4 438.837 1386.88 439.396 1387.93 440.326L1390.55 437.37C1388.62 435.649 1386.12 434.882 1383.28 434.882V438.837ZM1387.93 440.326C1388.93 441.214 1389.5 442.46 1389.5 444.316H1393.45C1393.45 441.533 1392.54 439.134 1390.55 437.37L1387.93 440.326ZM1389.5 444.316V492.786H1393.45V444.316H1389.5ZM1389.5 492.786C1389.5 494.642 1388.93 495.888 1387.93 496.777L1390.55 499.732C1392.54 497.969 1393.45 495.569 1393.45 492.786H1389.5ZM1387.93 496.777C1386.88 497.707 1385.4 498.266 1383.28 498.266V502.22C1386.12 502.22 1388.62 501.453 1390.55 499.732L1387.93 496.777ZM1407.11 498.254L1405.76 499.694L1405.76 499.694L1407.11 498.254ZM1406.99 438.848L1408.34 440.291L1408.34 440.288L1406.99 438.848ZM1418.67 438.848L1420.03 437.408L1420.03 437.408L1418.67 438.848ZM1420.78 447.921H1418.81V453.57L1422.33 449.154L1420.78 447.921ZM1463.66 444.441L1462.19 445.765L1462.2 445.777L1462.22 445.79L1463.66 444.441ZM1468.38 498.254L1469.7 499.732L1469.7 499.732L1468.38 498.254ZM1456.45 498.254L1455.1 499.694L1455.1 499.694L1456.45 498.254ZM1426.5 455.377L1427.93 456.743L1427.94 456.735L1427.95 456.727L1426.5 455.377ZM1419.04 498.254L1420.36 499.732L1420.36 499.732L1419.04 498.254ZM1413.08 498.266C1410.85 498.266 1409.4 497.694 1408.47 496.815L1405.76 499.694C1407.64 501.466 1410.18 502.22 1413.08 502.22V498.266ZM1408.47 496.815C1407.54 495.936 1406.98 494.678 1406.98 492.786H1403.02C1403.02 495.534 1403.87 497.921 1405.76 499.694L1408.47 496.815ZM1406.98 492.786V444.316H1403.02V492.786H1406.98ZM1406.98 444.316C1406.98 442.276 1407.53 441.05 1408.34 440.291L1405.64 437.406C1403.8 439.132 1403.02 441.552 1403.02 444.316H1406.98ZM1408.34 440.288C1409.29 439.398 1410.7 438.837 1412.83 438.837V434.882C1409.99 434.882 1407.51 435.647 1405.63 437.408L1408.34 440.288ZM1412.83 438.837C1414.96 438.837 1416.37 439.398 1417.32 440.288L1420.03 437.408C1418.16 435.647 1415.67 434.882 1412.83 434.882V438.837ZM1417.32 440.288C1418.25 441.166 1418.81 442.424 1418.81 444.316H1422.76C1422.76 441.569 1421.91 439.181 1420.03 437.408L1417.32 440.288ZM1418.81 444.316V447.921H1422.76V444.316H1418.81ZM1422.33 449.154C1427.8 442.292 1435.25 438.837 1444.9 438.837V434.882C1434.16 434.882 1425.53 438.802 1419.24 446.688L1422.33 449.154ZM1444.9 438.837C1452.39 438.837 1458.08 441.198 1462.19 445.765L1465.13 443.117C1460.13 437.576 1453.31 434.882 1444.9 434.882V438.837ZM1462.22 445.79C1466.43 450.304 1468.64 456.568 1468.64 464.823H1472.6C1472.6 455.844 1470.17 448.519 1465.11 443.092L1462.22 445.79ZM1468.64 464.823V492.786H1472.6V464.823H1468.64ZM1468.64 492.786C1468.64 494.642 1468.07 495.888 1467.07 496.777L1469.7 499.732C1471.68 497.969 1472.6 495.569 1472.6 492.786H1468.64ZM1467.07 496.777C1466.02 497.707 1464.54 498.266 1462.42 498.266V502.22C1465.26 502.22 1467.76 501.453 1469.7 499.732L1467.07 496.777ZM1462.42 498.266C1460.18 498.266 1458.74 497.694 1457.81 496.815L1455.1 499.694C1456.98 501.466 1459.52 502.22 1462.42 502.22V498.266ZM1457.81 496.815C1456.87 495.936 1456.32 494.678 1456.32 492.786H1452.36C1452.36 495.534 1453.21 497.921 1455.1 499.694L1457.81 496.815ZM1456.32 492.786V464.823H1452.36V492.786H1456.32ZM1456.32 464.823C1456.32 459.786 1455.08 455.579 1452.35 452.46L1449.37 455.064C1451.28 457.247 1452.36 460.414 1452.36 464.823H1456.32ZM1452.35 452.46C1449.59 449.303 1445.77 447.808 1441.17 447.808V451.762C1444.85 451.762 1447.5 452.918 1449.37 455.064L1452.35 452.46ZM1441.17 447.808C1434.46 447.808 1428.99 449.809 1425.06 454.028L1427.95 456.727C1430.97 453.49 1435.28 451.762 1441.17 451.762V447.808ZM1425.07 454.012C1421.14 458.13 1419.3 463.817 1419.3 470.788H1423.26C1423.26 464.503 1424.9 459.916 1427.93 456.743L1425.07 454.012ZM1419.3 470.788V492.786H1423.26V470.788H1419.3ZM1419.3 492.786C1419.3 494.642 1418.73 495.888 1417.73 496.777L1420.36 499.732C1422.34 497.969 1423.26 495.569 1423.26 492.786H1419.3ZM1417.73 496.777C1416.68 497.707 1415.2 498.266 1413.08 498.266V502.22C1415.93 502.22 1418.42 501.453 1420.36 499.732L1417.73 496.777ZM1499.36 527.212L1498.7 529.076L1498.71 529.079L1499.36 527.212ZM1486.68 519.382L1488.13 518.039L1488.13 518.033L1486.68 519.382ZM1487.93 509.564L1486.69 508.02L1486.67 508.032L1486.66 508.045L1487.93 509.564ZM1499.11 511.677L1500.45 510.219L1500.44 510.212L1499.11 511.677ZM1506.57 515.902L1507.22 514.037L1507.21 514.031L1507.19 514.026L1506.57 515.902ZM1531.42 511.677L1529.96 510.342L1529.96 510.342L1531.42 511.677ZM1536.52 495.52L1538.5 495.473L1538.5 495.471L1536.52 495.52ZM1536.39 490.549L1538.37 490.499L1538.24 485.323L1534.89 489.268L1536.39 490.549ZM1526.45 497.881L1525.7 496.054L1525.69 496.057L1525.68 496.06L1526.45 497.881ZM1488.8 491.916L1487.41 493.324L1487.41 493.329L1487.42 493.334L1488.8 491.916ZM1488.92 445.311L1490.29 446.739L1490.29 446.739L1488.92 445.311ZM1525.83 439.47L1526.62 437.658L1526.62 437.658L1525.83 439.47ZM1536.52 446.802L1535.12 448.2L1538.5 451.575V446.802H1536.52ZM1538.76 438.848L1537.44 437.37L1537.44 437.37L1538.76 438.848ZM1550.56 438.848L1549.21 440.288L1549.25 440.329L1549.3 440.367L1550.56 438.848ZM1548.45 513.292L1546.72 512.332L1546.72 512.343L1546.71 512.353L1548.45 513.292ZM1536.15 525.596L1535.19 523.866L1535.18 523.873L1536.15 525.596ZM1531.05 482.346L1532.38 483.809L1532.38 483.809L1531.05 482.346ZM1531.05 454.756L1529.72 456.219L1529.72 456.219L1531.05 454.756ZM1501.72 454.756L1503.1 456.171L1503.1 456.171L1501.72 454.756ZM1501.72 482.346L1500.34 483.762L1500.34 483.762L1501.72 482.346ZM1517.26 528.093C1510.99 528.093 1505.25 527.169 1500.01 525.345L1498.71 529.079C1504.41 531.065 1510.6 532.047 1517.26 532.047V528.093ZM1500.02 525.348C1494.86 523.521 1490.93 521.064 1488.13 518.039L1485.23 520.725C1488.56 524.328 1493.09 527.091 1498.7 529.076L1500.02 525.348ZM1488.13 518.033C1487.28 517.124 1486.92 516.188 1486.92 515.156H1482.97C1482.97 517.274 1483.77 519.154 1485.24 520.731L1488.13 518.033ZM1486.92 515.156C1486.92 513.815 1487.53 512.466 1489.19 511.083L1486.66 508.045C1484.34 509.976 1482.97 512.356 1482.97 515.156H1486.92ZM1489.16 511.108C1490.1 510.356 1491 510.05 1491.9 510.05V506.095C1489.99 506.095 1488.24 506.784 1486.69 508.02L1489.16 511.108ZM1491.9 510.05C1493.33 510.05 1495.27 510.865 1497.78 513.142L1500.44 510.212C1497.65 507.683 1494.78 506.095 1491.9 506.095V510.05ZM1497.77 513.134C1500 515.173 1502.74 516.71 1505.94 517.778L1507.19 514.026C1504.43 513.106 1502.2 511.826 1500.45 510.219L1497.77 513.134ZM1505.91 517.768C1509.2 518.924 1512.7 519.495 1516.39 519.495V515.541C1513.11 515.541 1510.06 515.035 1507.22 514.037L1505.91 517.768ZM1516.39 519.495C1523.27 519.495 1528.86 517.404 1532.88 513.011L1529.96 510.342C1526.86 513.737 1522.43 515.541 1516.39 515.541V519.495ZM1532.88 513.011C1536.88 508.637 1538.67 502.7 1538.5 495.473L1534.54 495.568C1534.7 502.095 1533.09 506.928 1529.96 510.342L1532.88 513.011ZM1538.5 495.471L1538.37 490.499L1534.42 490.598L1534.54 495.57L1538.5 495.471ZM1534.89 489.268C1532.26 492.357 1529.2 494.606 1525.7 496.054L1527.21 499.709C1531.32 498.008 1534.89 495.37 1537.9 491.829L1534.89 489.268ZM1525.68 496.06C1522.27 497.502 1517.95 498.266 1512.66 498.266V502.22C1518.3 502.22 1523.18 501.409 1527.22 499.703L1525.68 496.06ZM1512.66 498.266C1502.83 498.266 1495.43 495.598 1490.17 490.498L1487.42 493.334C1493.6 499.336 1502.1 502.22 1512.66 502.22V498.266ZM1490.18 490.508C1484.93 485.33 1482.2 478.098 1482.2 468.551H1478.24C1478.24 478.889 1481.23 487.234 1487.41 493.324L1490.18 490.508ZM1482.2 468.551C1482.2 459.011 1484.97 451.832 1490.29 446.739L1487.55 443.882C1481.27 449.892 1478.24 458.207 1478.24 468.551H1482.2ZM1490.29 446.739C1495.71 441.548 1503.32 438.837 1513.4 438.837V434.882C1502.6 434.882 1493.9 437.805 1487.55 443.883L1490.29 446.739ZM1513.4 438.837C1517.44 438.837 1521.31 439.65 1525.04 441.281L1526.62 437.658C1522.4 435.81 1517.99 434.882 1513.4 434.882V438.837ZM1525.04 441.281C1528.78 442.92 1532.14 445.221 1535.12 448.2L1537.92 445.404C1534.6 442.086 1530.83 439.499 1526.62 437.658L1525.04 441.281ZM1538.5 446.802V444.316H1534.54V446.802H1538.5ZM1538.5 444.316C1538.5 442.46 1539.07 441.214 1540.07 440.326L1537.44 437.37C1535.46 439.134 1534.54 441.533 1534.54 444.316H1538.5ZM1540.07 440.326C1541.12 439.396 1542.6 438.837 1544.72 438.837V434.882C1541.88 434.882 1539.38 435.649 1537.44 437.37L1540.07 440.326ZM1544.72 438.837C1546.85 438.837 1548.26 439.398 1549.21 440.288L1551.92 437.408C1550.05 435.647 1547.56 434.882 1544.72 434.882V438.837ZM1549.3 440.367C1550.23 441.147 1550.82 442.348 1550.82 444.316H1554.78C1554.78 441.479 1553.88 439.035 1551.83 437.329L1549.3 440.367ZM1550.82 444.316V495.52H1554.78V444.316H1550.82ZM1550.82 495.52C1550.82 501.85 1549.44 507.437 1546.72 512.332L1550.18 514.252C1553.26 508.708 1554.78 502.447 1554.78 495.52H1550.82ZM1546.71 512.353C1544.08 517.227 1540.26 521.06 1535.19 523.866L1537.1 527.326C1542.81 524.167 1547.19 519.797 1550.19 514.231L1546.71 512.353ZM1535.18 523.873C1530.22 526.659 1524.27 528.093 1517.26 528.093V532.047C1524.82 532.047 1531.46 530.499 1537.12 527.319L1535.18 523.873ZM1515.89 489.295C1522.69 489.295 1528.27 487.547 1532.38 483.809L1529.72 480.883C1526.54 483.774 1522.02 485.34 1515.89 485.34V489.295ZM1532.38 483.809C1536.52 480.048 1538.5 474.873 1538.5 468.551H1534.54C1534.54 473.994 1532.87 478.016 1529.72 480.883L1532.38 483.809ZM1538.5 468.551C1538.5 462.229 1536.52 457.054 1532.38 453.293L1529.72 456.219C1532.87 459.086 1534.54 463.108 1534.54 468.551H1538.5ZM1532.38 453.293C1528.27 449.556 1522.69 447.808 1515.89 447.808V451.762C1522.02 451.762 1526.54 453.328 1529.72 456.219L1532.38 453.293ZM1515.89 447.808C1509.47 447.808 1504.2 449.575 1500.34 453.341L1503.1 456.171C1506.04 453.309 1510.21 451.762 1515.89 451.762V447.808ZM1500.34 453.341C1496.47 457.112 1494.65 462.271 1494.65 468.551H1498.6C1498.6 463.066 1500.17 459.028 1503.1 456.171L1500.34 453.341ZM1494.65 468.551C1494.65 474.831 1496.47 479.99 1500.34 483.762L1503.1 480.931C1500.17 478.074 1498.6 474.037 1498.6 468.551H1494.65ZM1500.34 483.762C1504.2 487.528 1509.47 489.295 1515.89 489.295V485.34C1510.21 485.34 1506.04 483.793 1503.1 480.931L1500.34 483.762ZM1579.52 496.39L1580.38 494.611L1580.38 494.611L1579.52 496.39ZM1567.22 485.578L1565.52 486.591L1565.53 486.608L1565.54 486.626L1567.22 485.578ZM1571.82 445.311L1570.46 443.873L1570.45 443.883L1571.82 445.311ZM1614.45 439.967L1613.7 441.796L1613.71 441.8L1614.45 439.967ZM1626.38 448.666L1624.8 449.858L1624.81 449.878L1624.83 449.897L1626.38 448.666ZM1626.87 470.415L1625.6 468.901L1625.59 468.911L1625.58 468.921L1626.87 470.415ZM1578.78 473.647V471.67H1576.8V473.647H1578.78ZM1583.62 484.211L1582.44 485.797L1582.47 485.814L1582.49 485.83L1583.62 484.211ZM1615.31 483.216L1614.27 481.54L1614.26 481.545L1615.31 483.216ZM1625.63 482.719L1624.23 484.117L1624.23 484.117L1625.63 482.719ZM1625.26 492.04L1624.12 490.42L1624.09 490.443L1624.06 490.468L1625.26 492.04ZM1613.08 498.13L1612.5 496.238L1612.5 496.238L1613.08 498.13ZM1614.2 461.467L1615.48 462.968L1615.54 462.919L1615.59 462.865L1614.2 461.467ZM1610.1 451.898L1609.19 453.657L1609.2 453.662L1609.21 453.666L1610.1 451.898ZM1583.75 452.892L1582.59 451.286L1582.58 451.293L1582.57 451.3L1583.75 452.892ZM1579.03 462.213H1577.05V464.19H1579.03V462.213ZM1598.16 498.266C1591.28 498.266 1585.37 497.025 1580.38 494.611L1578.66 498.17C1584.28 500.893 1590.8 502.22 1598.16 502.22V498.266ZM1580.38 494.611C1575.39 492.191 1571.58 488.83 1568.9 484.53L1565.54 486.626C1568.65 491.605 1573.05 495.452 1578.66 498.17L1580.38 494.611ZM1568.92 484.565C1566.31 480.191 1564.97 475.041 1564.97 469.048H1561.02C1561.02 475.649 1562.5 481.519 1565.52 486.591L1568.92 484.565ZM1564.97 469.048C1564.97 459.253 1567.78 451.911 1573.18 446.739L1570.45 443.883C1564.08 449.979 1561.02 458.462 1561.02 469.048H1564.97ZM1573.17 446.748C1578.67 441.558 1586.49 438.837 1596.92 438.837V434.882C1585.81 434.882 1576.89 437.795 1570.46 443.873L1573.17 446.748ZM1596.92 438.837C1603.35 438.837 1608.92 439.841 1613.7 441.796L1615.19 438.137C1609.86 435.95 1603.75 434.882 1596.92 434.882V438.837ZM1613.71 441.8C1618.57 443.763 1622.23 446.465 1624.8 449.858L1627.95 447.474C1624.88 443.411 1620.59 440.313 1615.18 438.133L1613.71 441.8ZM1624.83 449.897C1627.45 453.188 1628.75 456.936 1628.75 461.219H1632.7C1632.7 456.056 1631.11 451.436 1627.92 447.435L1624.83 449.897ZM1628.75 461.219C1628.75 464.732 1627.64 467.193 1625.6 468.901L1628.14 471.93C1631.24 469.329 1632.7 465.66 1632.7 461.219H1628.75ZM1625.58 468.921C1623.58 470.657 1620.54 471.67 1616.18 471.67V475.624C1621.11 475.624 1625.2 474.482 1628.17 471.91L1625.58 468.921ZM1616.18 471.67H1578.78V475.624H1616.18V471.67ZM1576.8 473.647C1576.8 478.803 1578.63 482.961 1582.44 485.797L1584.8 482.624C1582.15 480.655 1580.75 477.77 1580.75 473.647H1576.8ZM1582.49 485.83C1586.28 488.482 1591.6 489.668 1598.16 489.668V485.713C1591.97 485.713 1587.6 484.579 1584.76 482.591L1582.49 485.83ZM1598.16 489.668C1605.17 489.668 1611.27 488.107 1616.37 484.888L1614.26 481.545C1609.91 484.291 1604.58 485.713 1598.16 485.713V489.668ZM1616.36 484.893C1618.98 483.26 1620.64 482.708 1621.53 482.708V478.754C1619.44 478.754 1616.96 479.859 1614.27 481.54L1616.36 484.893ZM1621.53 482.708C1622.26 482.708 1623.15 483.036 1624.23 484.117L1627.03 481.321C1625.46 479.752 1623.62 478.754 1621.53 478.754V482.708ZM1624.23 484.117C1625.35 485.235 1625.77 486.288 1625.77 487.318H1629.72C1629.72 485.033 1628.73 483.02 1627.03 481.321L1624.23 484.117ZM1625.77 487.318C1625.77 488.648 1625.26 489.623 1624.12 490.42L1626.39 493.66C1628.57 492.138 1629.72 489.964 1629.72 487.318H1625.77ZM1624.06 490.468C1620.79 492.962 1616.94 494.891 1612.5 496.238L1613.65 500.022C1618.49 498.552 1622.77 496.422 1626.46 493.613L1624.06 490.468ZM1612.5 496.238C1608.07 497.585 1603.29 498.266 1598.16 498.266V502.22C1603.64 502.22 1608.81 501.492 1613.65 500.022L1612.5 496.238ZM1611.21 464.19C1612.74 464.19 1614.35 463.943 1615.48 462.968L1612.91 459.966C1612.92 459.959 1612.83 460.034 1612.54 460.108C1612.24 460.182 1611.81 460.236 1611.21 460.236V464.19ZM1615.59 462.865C1616.7 461.761 1617.04 460.234 1617.04 458.733H1613.09C1613.09 459.717 1612.85 460.013 1612.8 460.069L1615.59 462.865ZM1617.04 458.733C1617.04 454.866 1614.74 452.011 1610.98 450.129L1609.21 453.666C1612.08 455.099 1613.09 456.801 1613.09 458.733H1617.04ZM1611 450.138C1607.38 448.282 1602.64 447.435 1596.92 447.435V451.389C1602.31 451.389 1606.35 452.199 1609.19 453.657L1611 450.138ZM1596.92 447.435C1591.12 447.435 1586.27 448.646 1582.59 451.286L1584.9 454.498C1587.69 452.498 1591.62 451.389 1596.92 451.389V447.435ZM1582.57 451.3C1578.92 453.991 1577.05 457.687 1577.05 462.213H1581C1581 458.95 1582.28 456.433 1584.92 454.484L1582.57 451.3ZM1579.03 464.19H1611.21V460.236H1579.03V464.19ZM1643.05 498.254L1641.7 499.694L1641.7 499.694L1643.05 498.254ZM1642.93 438.848L1644.28 440.291L1644.28 440.288L1642.93 438.848ZM1654.61 438.848L1655.97 437.408L1655.97 437.408L1654.61 438.848ZM1656.72 448.418H1654.75V454.197L1658.29 449.629L1656.72 448.418ZM1665.67 440.837L1666.57 442.596L1666.58 442.592L1666.59 442.588L1665.67 440.837ZM1685.68 439.842L1684.42 441.369L1684.47 441.409L1684.52 441.445L1685.68 439.842ZM1685.68 449.412L1686.88 450.983L1686.89 450.978L1686.9 450.973L1685.68 449.412ZM1662.07 456.372L1660.62 455.025L1660.62 455.026L1662.07 456.372ZM1654.98 498.254L1656.3 499.732L1656.3 499.732L1654.98 498.254ZM1649.02 498.266C1646.78 498.266 1645.34 497.694 1644.41 496.815L1641.7 499.694C1643.58 501.466 1646.12 502.22 1649.02 502.22V498.266ZM1644.41 496.815C1643.47 495.936 1642.92 494.678 1642.92 492.786H1638.96C1638.96 495.534 1639.81 497.921 1641.7 499.694L1644.41 496.815ZM1642.92 492.786V444.316H1638.96V492.786H1642.92ZM1642.92 444.316C1642.92 442.276 1643.47 441.05 1644.28 440.291L1641.58 437.406C1639.73 439.132 1638.96 441.552 1638.96 444.316H1642.92ZM1644.28 440.288C1645.23 439.398 1646.64 438.837 1648.77 438.837V434.882C1645.93 434.882 1643.44 435.647 1641.57 437.408L1644.28 440.288ZM1648.77 438.837C1650.9 438.837 1652.31 439.398 1653.26 440.288L1655.97 437.408C1654.1 435.647 1651.61 434.882 1648.77 434.882V438.837ZM1653.26 440.288C1654.19 441.166 1654.75 442.424 1654.75 444.316H1658.7C1658.7 441.569 1657.85 439.181 1655.97 437.408L1653.26 440.288ZM1654.75 444.316V448.418H1658.7V444.316H1654.75ZM1658.29 449.629C1660.7 446.521 1663.46 444.192 1666.57 442.596L1664.77 439.077C1661.09 440.962 1657.89 443.686 1655.16 447.207L1658.29 449.629ZM1666.59 442.588C1669.78 440.915 1673.2 440.08 1676.86 440.08V436.125C1672.56 436.125 1668.52 437.112 1664.75 439.085L1666.59 442.588ZM1676.86 440.08H1679.59V436.125H1676.86V440.08ZM1679.59 440.08C1681.99 440.08 1683.5 440.607 1684.42 441.369L1686.94 438.316C1685.05 436.758 1682.5 436.125 1679.59 436.125V440.08ZM1684.52 441.445C1685.43 442.1 1685.94 443.036 1685.94 444.565H1689.9C1689.9 441.951 1688.92 439.739 1686.84 438.24L1684.52 441.445ZM1685.94 444.565C1685.94 446.094 1685.43 447.105 1684.47 447.851L1686.9 450.973C1688.92 449.399 1689.9 447.179 1689.9 444.565H1685.94ZM1684.48 447.841C1683.55 448.553 1682.01 449.05 1679.59 449.05V453.005C1682.47 453.005 1685 452.426 1686.88 450.983L1684.48 447.841ZM1679.59 449.05H1675.37V453.005H1679.59V449.05ZM1675.37 449.05C1669.35 449.05 1664.36 451.002 1660.62 455.025L1663.52 457.718C1666.4 454.616 1670.28 453.005 1675.37 453.005V449.05ZM1660.62 455.026C1656.96 458.969 1655.24 464.308 1655.24 470.788H1659.2C1659.2 465.006 1660.71 460.734 1663.52 457.717L1660.62 455.026ZM1655.24 470.788V492.786H1659.2V470.788H1655.24ZM1655.24 492.786C1655.24 494.642 1654.67 495.888 1653.67 496.777L1656.3 499.732C1658.28 497.969 1659.2 495.569 1659.2 492.786H1655.24ZM1653.67 496.777C1652.62 497.707 1651.14 498.266 1649.02 498.266V502.22C1651.86 502.22 1654.36 501.453 1656.3 499.732L1653.67 496.777ZM1743.23 482.968L1741.97 484.494L1741.98 484.502L1743.23 482.968ZM1743.48 491.792L1741.86 490.658L1741.85 490.665L1741.85 490.672L1743.48 491.792ZM1735.77 498.006L1736.58 499.809L1736.58 499.809L1735.77 498.006ZM1708.93 494.899L1707.54 496.312L1707.56 496.328L1707.58 496.343L1708.93 494.899ZM1703.33 450.903H1705.31V448.926H1703.33V450.903ZM1692.27 449.163L1693.49 447.603L1693.49 447.603L1692.27 449.163ZM1692.15 439.842L1690.93 438.282L1690.91 438.299L1690.89 438.316L1692.15 439.842ZM1703.33 438.102V440.08H1705.31V438.102H1703.33ZM1705.57 413.868L1704.26 412.39L1704.26 412.39L1705.57 413.868ZM1717.5 413.868L1718.86 412.428L1718.86 412.428L1717.5 413.868ZM1719.61 438.102H1717.64V440.08H1719.61V438.102ZM1737.51 439.842L1736.25 441.369L1736.28 441.386L1736.3 441.403L1737.51 439.842ZM1737.51 449.163L1736.3 447.603L1736.28 447.62L1736.25 447.637L1737.51 449.163ZM1719.61 450.903V448.926H1717.64V450.903H1719.61ZM1721.23 485.702L1719.83 487.1L1719.86 487.126L1719.88 487.151L1721.23 485.702ZM1729.68 486.696L1730.39 488.542L1730.43 488.528L1730.46 488.514L1729.68 486.696ZM1733.16 484.335L1734.51 485.784L1734.52 485.772L1734.53 485.76L1733.16 484.335ZM1741.98 484.502C1742.89 485.24 1743.24 486.021 1743.24 486.945H1747.19C1747.19 484.72 1746.22 482.849 1744.47 481.433L1741.98 484.502ZM1743.24 486.945C1743.24 488.012 1742.85 489.239 1741.86 490.658L1745.1 492.926C1746.42 491.031 1747.19 489.026 1747.19 486.945H1743.24ZM1741.85 490.672C1740.26 492.987 1737.99 494.84 1734.96 496.203L1736.58 499.809C1740.18 498.189 1743.05 495.899 1745.11 492.912L1741.85 490.672ZM1734.96 496.203C1731.93 497.564 1728.49 498.266 1724.59 498.266V502.22C1728.97 502.22 1732.98 501.43 1736.58 499.809L1734.96 496.203ZM1724.59 498.266C1718.32 498.266 1713.63 496.589 1710.28 493.454L1707.58 496.343C1711.85 500.334 1717.6 502.22 1724.59 502.22V498.266ZM1710.31 493.485C1707.04 490.287 1705.31 485.868 1705.31 479.985H1701.36C1701.36 486.696 1703.36 492.22 1707.54 496.312L1710.31 493.485ZM1705.31 479.985V450.903H1701.36V479.985H1705.31ZM1703.33 448.926H1698.24V452.881H1703.33V448.926ZM1698.24 448.926C1696.05 448.926 1694.54 448.418 1693.49 447.603L1691.06 450.724C1692.99 452.229 1695.45 452.881 1698.24 452.881V448.926ZM1693.49 447.603C1692.48 446.821 1692.01 445.867 1692.01 444.565H1688.06C1688.06 447.075 1689.08 449.186 1691.06 450.724L1693.49 447.603ZM1692.01 444.565C1692.01 443.107 1692.5 442.116 1693.41 441.369L1690.89 438.316C1688.98 439.888 1688.06 442.046 1688.06 444.565H1692.01ZM1693.36 441.403C1694.4 440.596 1695.95 440.08 1698.24 440.08V436.125C1695.39 436.125 1692.88 436.769 1690.93 438.282L1693.36 441.403ZM1698.24 440.08H1703.33V436.125H1698.24V440.08ZM1705.31 438.102V419.336H1701.36V438.102H1705.31ZM1705.31 419.336C1705.31 417.48 1705.89 416.234 1706.88 415.345L1704.26 412.39C1702.27 414.153 1701.36 416.553 1701.36 419.336H1705.31ZM1706.88 415.345C1707.93 414.415 1709.41 413.856 1711.54 413.856V409.902C1708.69 409.902 1706.19 410.669 1704.26 412.39L1706.88 415.345ZM1711.54 413.856C1713.77 413.856 1715.21 414.428 1716.15 415.308L1718.86 412.428C1716.97 410.656 1714.44 409.902 1711.54 409.902V413.856ZM1716.15 415.307C1717.08 416.186 1717.64 417.444 1717.64 419.336H1721.59C1721.59 416.588 1720.74 414.201 1718.86 412.428L1716.15 415.307ZM1717.64 419.336V438.102H1721.59V419.336H1717.64ZM1719.61 440.08H1731.55V436.125H1719.61V440.08ZM1731.55 440.08C1733.84 440.08 1735.32 440.599 1736.25 441.369L1738.77 438.316C1736.89 436.766 1734.39 436.125 1731.55 436.125V440.08ZM1736.3 441.403C1737.28 442.166 1737.77 443.15 1737.77 444.565H1741.73C1741.73 442.004 1740.73 439.838 1738.72 438.282L1736.3 441.403ZM1737.77 444.565C1737.77 445.867 1737.3 446.821 1736.3 447.603L1738.72 450.724C1740.7 449.186 1741.73 447.075 1741.73 444.565H1737.77ZM1736.25 447.637C1735.32 448.407 1733.84 448.926 1731.55 448.926V452.881C1734.39 452.881 1736.89 452.24 1738.77 450.69L1736.25 447.637ZM1731.55 448.926H1719.61V452.881H1731.55V448.926ZM1717.64 450.903V481.352H1721.59V450.903H1717.64ZM1717.64 481.352C1717.64 483.589 1718.31 485.581 1719.83 487.1L1722.63 484.304C1721.99 483.669 1721.59 482.761 1721.59 481.352H1717.64ZM1719.88 487.151C1721.48 488.634 1723.53 489.295 1725.83 489.295V485.34C1724.31 485.34 1723.3 484.924 1722.58 484.253L1719.88 487.151ZM1725.83 489.295C1727.5 489.295 1729.03 489.064 1730.39 488.542L1728.97 484.851C1728.18 485.157 1727.14 485.34 1725.83 485.34V489.295ZM1730.46 488.514C1731.87 487.908 1733.22 486.978 1734.51 485.784L1731.82 482.886C1730.78 483.846 1729.81 484.491 1728.9 484.879L1730.46 488.514ZM1734.53 485.76C1736.54 483.828 1738.06 483.205 1739.13 483.205V479.251C1736.55 479.251 1734.09 480.699 1731.79 482.91L1734.53 485.76ZM1739.13 483.205C1739.85 483.205 1740.78 483.517 1741.97 484.494L1744.48 481.442C1742.85 480.099 1741.06 479.251 1739.13 479.251V483.205ZM1756.91 426.669L1755.55 428.099L1755.58 428.131L1755.61 428.161L1756.91 426.669ZM1756.91 413.371L1758.24 414.834L1758.24 414.831L1756.91 413.371ZM1771.82 413.371L1770.49 414.831L1770.52 414.861L1770.56 414.89L1771.82 413.371ZM1771.82 426.669L1773.12 428.161L1773.13 428.157L1771.82 426.669ZM1758.53 498.254L1757.17 499.694L1757.17 499.694L1758.53 498.254ZM1758.53 438.848L1757.17 437.408L1757.17 437.408L1758.53 438.848ZM1770.46 438.848L1771.77 437.37L1771.77 437.37L1770.46 438.848ZM1770.46 498.254L1769.14 496.777L1769.14 496.777L1770.46 498.254ZM1764.37 427.177C1761.67 427.177 1759.68 426.457 1758.21 425.177L1755.61 428.161C1757.95 430.194 1760.93 431.131 1764.37 431.131V427.177ZM1758.28 425.238C1756.88 423.905 1756.15 422.202 1756.15 419.957H1752.2C1752.2 423.181 1753.3 425.952 1755.55 428.099L1758.28 425.238ZM1756.15 419.957C1756.15 417.712 1756.88 416.072 1758.24 414.834L1755.58 411.908C1753.3 413.983 1752.2 416.734 1752.2 419.957H1756.15ZM1758.24 414.831C1759.72 413.484 1761.7 412.738 1764.37 412.738V408.783C1760.91 408.783 1757.91 409.777 1755.58 411.91L1758.24 414.831ZM1764.37 412.738C1767.04 412.738 1769.02 413.484 1770.49 414.831L1773.16 411.91C1770.82 409.777 1767.83 408.783 1764.37 408.783V412.738ZM1770.56 414.89C1772.07 416.147 1772.83 417.772 1772.83 419.957H1776.78C1776.78 416.674 1775.56 413.908 1773.09 411.852L1770.56 414.89ZM1772.83 419.957C1772.83 422.144 1772.06 423.831 1770.52 425.181L1773.13 428.157C1775.56 426.027 1776.78 423.239 1776.78 419.957H1772.83ZM1770.53 425.177C1769.05 426.457 1767.06 427.177 1764.37 427.177V431.131C1767.8 431.131 1770.78 430.194 1773.12 428.161L1770.53 425.177ZM1764.49 498.266C1762.26 498.266 1760.82 497.694 1759.88 496.815L1757.17 499.694C1759.05 501.466 1761.59 502.22 1764.49 502.22V498.266ZM1759.88 496.815C1758.95 495.936 1758.39 494.678 1758.39 492.786H1754.44C1754.44 495.534 1755.29 497.921 1757.17 499.694L1759.88 496.815ZM1758.39 492.786V444.316H1754.44V492.786H1758.39ZM1758.39 444.316C1758.39 442.424 1758.95 441.166 1759.88 440.288L1757.17 437.408C1755.29 439.181 1754.44 441.569 1754.44 444.316H1758.39ZM1759.88 440.288C1760.82 439.408 1762.26 438.837 1764.49 438.837V434.882C1761.59 434.882 1759.05 435.637 1757.17 437.408L1759.88 440.288ZM1764.49 438.837C1766.62 438.837 1768.1 439.396 1769.14 440.326L1771.77 437.37C1769.83 435.649 1767.34 434.882 1764.49 434.882V438.837ZM1769.14 440.326C1770.14 441.214 1770.72 442.46 1770.72 444.316H1774.67C1774.67 441.533 1773.75 439.134 1771.77 437.37L1769.14 440.326ZM1770.72 444.316V492.786H1774.67V444.316H1770.72ZM1770.72 492.786C1770.72 494.642 1770.14 495.888 1769.14 496.777L1771.77 499.732C1773.75 497.969 1774.67 495.569 1774.67 492.786H1770.72ZM1769.14 496.777C1768.1 497.707 1766.62 498.266 1764.49 498.266V502.22C1767.34 502.22 1769.83 501.453 1771.77 499.732L1769.14 496.777ZM1788.33 534.171L1786.98 535.611L1786.98 535.611L1788.33 534.171ZM1788.33 438.848L1786.98 437.408L1786.98 437.408L1788.33 438.848ZM1800.26 438.848L1801.57 437.37L1801.57 437.37L1800.26 438.848ZM1802.5 446.802H1800.52V451.497L1803.88 448.217L1802.5 446.802ZM1813.56 439.221L1812.82 437.388L1812.81 437.391L1812.8 437.394L1813.56 439.221ZM1843.64 440.712L1842.7 442.456L1842.72 442.463L1843.64 440.712ZM1854.82 451.773L1853.08 452.705L1853.09 452.723L1853.1 452.741L1854.82 451.773ZM1843.51 496.39L1842.59 494.64L1842.59 494.64L1843.51 496.39ZM1813.19 498.006L1812.42 499.827L1812.43 499.835L1812.45 499.842L1813.19 498.006ZM1802.62 490.549L1804.04 489.168L1800.66 485.707L1800.65 490.542L1802.62 490.549ZM1802.5 528.703L1800.52 528.697V528.703H1802.5ZM1800.26 534.171L1801.57 535.649L1801.57 535.649L1800.26 534.171ZM1837.17 482.471L1838.54 483.903L1838.54 483.902L1837.17 482.471ZM1837.17 454.756L1835.79 456.171L1835.81 456.188L1835.83 456.205L1837.17 454.756ZM1807.84 454.88L1809.19 456.328L1809.19 456.327L1807.84 454.88ZM1807.84 482.346L1806.48 483.777L1806.49 483.794L1806.51 483.809L1807.84 482.346ZM1794.3 534.183C1792.06 534.183 1790.62 533.611 1789.69 532.732L1786.98 535.611C1788.86 537.383 1791.39 538.137 1794.3 538.137V534.183ZM1789.69 532.732C1788.75 531.853 1788.19 530.595 1788.19 528.703H1784.24C1784.24 531.451 1785.09 533.838 1786.98 535.611L1789.69 532.732ZM1788.19 528.703V444.316H1784.24V528.703H1788.19ZM1788.19 444.316C1788.19 442.424 1788.75 441.166 1789.69 440.288L1786.98 437.408C1785.09 439.181 1784.24 441.569 1784.24 444.316H1788.19ZM1789.69 440.288C1790.62 439.408 1792.06 438.837 1794.3 438.837V434.882C1791.39 434.882 1788.86 435.637 1786.98 437.408L1789.69 440.288ZM1794.3 438.837C1796.42 438.837 1797.9 439.396 1798.95 440.326L1801.57 437.37C1799.64 435.649 1797.14 434.882 1794.3 434.882V438.837ZM1798.95 440.326C1799.95 441.214 1800.52 442.46 1800.52 444.316H1804.48C1804.48 441.533 1803.56 439.134 1801.57 437.37L1798.95 440.326ZM1800.52 444.316V446.802H1804.48V444.316H1800.52ZM1803.88 448.217C1807.3 444.877 1810.78 442.508 1814.31 441.048L1812.8 437.394C1808.72 439.082 1804.82 441.767 1801.12 445.388L1803.88 448.217ZM1814.3 441.054C1817.92 439.589 1822.06 438.837 1826.73 438.837V434.882C1821.63 434.882 1816.98 435.704 1812.82 437.388L1814.3 441.054ZM1826.73 438.837C1832.93 438.837 1838.23 440.067 1842.7 442.456L1844.57 438.969C1839.43 436.221 1833.46 434.882 1826.73 434.882V438.837ZM1842.72 442.463C1847.26 444.85 1850.7 448.254 1853.08 452.705L1856.56 450.841C1853.81 445.682 1849.79 441.712 1844.55 438.962L1842.72 442.463ZM1853.1 452.741C1855.55 457.116 1856.82 462.362 1856.82 468.551H1860.77C1860.77 461.815 1859.39 455.876 1856.54 450.805L1853.1 452.741ZM1856.82 468.551C1856.82 474.652 1855.55 479.905 1853.09 484.374L1856.55 486.284C1859.39 481.142 1860.77 475.21 1860.77 468.551H1856.82ZM1853.09 484.374C1850.63 488.839 1847.14 492.25 1842.59 494.64L1844.43 498.14C1849.66 495.393 1853.71 491.431 1856.55 486.284L1853.09 484.374ZM1842.59 494.64C1838.04 497.032 1832.61 498.266 1826.24 498.266V502.22C1833.12 502.22 1839.21 500.885 1844.43 498.14L1842.59 494.64ZM1826.24 498.266C1821.46 498.266 1817.37 497.549 1813.92 496.17L1812.45 499.842C1816.46 501.446 1821.07 502.22 1826.24 502.22V498.266ZM1813.96 496.184C1810.51 494.729 1807.2 492.409 1804.04 489.168L1801.21 491.93C1804.67 495.483 1808.41 498.134 1812.42 499.827L1813.96 496.184ZM1800.65 490.542L1800.52 528.697L1804.48 528.71L1804.6 490.555L1800.65 490.542ZM1800.52 528.703C1800.52 530.559 1799.95 531.806 1798.95 532.694L1801.57 535.649C1803.56 533.886 1804.48 531.487 1804.48 528.703H1800.52ZM1798.95 532.694C1797.9 533.624 1796.42 534.183 1794.3 534.183V538.137C1797.14 538.137 1799.64 537.37 1801.57 535.649L1798.95 532.694ZM1822.88 489.295C1829.36 489.295 1834.67 487.581 1838.54 483.903L1835.81 481.038C1832.88 483.823 1828.67 485.34 1822.88 485.34V489.295ZM1838.54 483.902C1842.5 480.129 1844.37 474.918 1844.37 468.551H1840.42C1840.42 474.115 1838.81 478.184 1835.81 481.039L1838.54 483.902ZM1844.37 468.551C1844.37 462.186 1842.5 457.004 1838.52 453.307L1835.83 456.205C1838.81 458.971 1840.42 462.985 1840.42 468.551H1844.37ZM1838.55 453.341C1834.69 449.57 1829.37 447.808 1822.88 447.808V451.762C1828.65 451.762 1832.86 453.314 1835.79 456.171L1838.55 453.341ZM1822.88 447.808C1816.15 447.808 1810.6 449.608 1806.49 453.434L1809.19 456.327C1812.38 453.359 1816.86 451.762 1822.88 451.762V447.808ZM1806.5 453.433C1802.45 457.192 1800.52 462.317 1800.52 468.551H1804.48C1804.48 463.186 1806.11 459.197 1809.19 456.328L1806.5 453.433ZM1800.52 468.551C1800.52 474.787 1802.45 479.941 1806.48 483.777L1809.21 480.915C1806.11 477.958 1804.48 473.915 1804.48 468.551H1800.52ZM1806.51 483.809C1810.62 487.543 1816.16 489.295 1822.88 489.295V485.34C1816.84 485.34 1812.36 483.778 1809.17 480.883L1806.51 483.809Z" fill="#3A506B"/>
</g>
<defs>
<clipPath id="clip0_104_18">
<rect width="1981" height="642" fill="white"/>
</clipPath>
</defs>
</svg>
