<svg width="1081" height="1081" viewBox="0 0 1081 1081" fill="none" xmlns="http://www.w3.org/2000/svg">
<rect width="1080.68" height="1080.68" rx="135.085" fill="#5BC0BE"/>
<path d="M92.4532 460.357C92.4532 445.228 96.776 433.448 105.421 425.019C114.283 416.59 126.495 412.375 142.056 412.375H199.765C231.969 412.375 256.284 418.643 272.71 431.179C289.137 443.715 297.35 462.41 297.35 487.266C297.35 510.392 290.433 528.44 276.601 541.408C262.984 554.376 244.613 560.86 221.486 560.86L270.765 609.815C274.656 613.705 276.601 618.136 276.601 623.107C276.601 628.294 274.331 632.833 269.793 636.724C265.038 640.398 260.391 642.235 255.852 642.235C249.584 642.235 243.856 639.425 238.669 633.806L168.641 562.157H135.572V623.107C135.572 629.159 133.519 633.914 129.412 637.372C125.306 640.83 120.119 642.559 113.851 642.559C107.367 642.559 102.179 640.83 98.2889 637.372C94.3985 633.914 92.4532 629.159 92.4532 623.107V460.357ZM198.468 528.764C212.733 528.764 223.864 527.359 231.861 524.549C239.858 521.74 245.477 517.417 248.719 511.581C252.177 505.529 253.907 497.424 253.907 487.266C253.907 472.569 249.368 461.978 240.29 455.494C231.428 449.01 217.488 445.768 198.468 445.768H149.513C145.19 445.768 141.732 447.173 139.139 449.983C136.761 452.792 135.572 456.683 135.572 461.654V528.764H198.468ZM407.574 642.559C388.986 642.559 372.776 639.209 358.943 632.509C345.111 625.809 334.412 616.407 326.847 604.303C319.499 591.984 315.824 577.611 315.824 561.184C315.824 534.6 323.497 513.959 338.843 499.261C354.405 484.564 376.234 477.216 404.332 477.216C421.623 477.216 436.86 479.917 450.045 485.321C463.445 490.724 473.819 498.289 481.168 508.015C488.733 517.525 492.515 528.44 492.515 540.759C492.515 551.134 489.165 559.131 482.465 564.751C475.981 570.37 466.687 573.18 454.583 573.18H356.998C356.998 585.283 361.213 594.469 369.642 600.737C378.288 606.789 390.931 609.815 407.574 609.815C425.081 609.815 439.994 605.924 452.314 598.143C459.23 593.821 464.634 591.659 468.524 591.659C472.198 591.659 475.765 593.389 479.223 596.847C482.897 600.521 484.734 604.519 484.734 608.842C484.734 614.029 482.573 618.136 478.25 621.162C469.173 628.078 458.582 633.374 446.478 637.048C434.375 640.722 421.407 642.559 407.574 642.559ZM441.615 543.353C445.29 543.353 447.883 542.705 449.396 541.408C450.909 539.895 451.666 537.517 451.666 534.275C451.666 526.711 447.343 520.767 438.697 516.444C430.268 512.122 418.813 509.96 404.332 509.96C389.851 509.96 378.396 512.986 369.966 519.038C361.753 525.09 357.647 533.195 357.647 543.353H441.615ZM546.718 642.559C540.018 642.559 534.831 640.83 531.156 637.372C527.482 633.914 525.645 629.159 525.645 623.107V412.699C525.645 406.647 527.482 401.892 531.156 398.434C534.831 394.976 540.018 393.247 546.718 393.247C553.202 393.247 558.389 394.976 562.28 398.434C566.17 401.892 568.115 406.647 568.115 412.699V623.107C568.115 629.159 566.17 633.914 562.28 637.372C558.389 640.83 553.202 642.559 546.718 642.559ZM684.73 720.368C668.952 720.368 654.579 717.883 641.611 712.912C628.859 708.157 619.025 701.456 612.108 692.811C609.299 689.137 607.894 685.354 607.894 681.464C607.894 676.277 610.379 671.522 615.35 667.199C618.592 664.605 622.159 663.308 626.049 663.308C631.885 663.308 637.504 666.226 642.908 672.062C652.201 682.004 665.818 686.975 683.757 686.975C699.103 686.975 710.666 682.869 718.447 674.655C726.444 666.658 730.443 654.879 730.443 639.317V625.701C725.255 630.672 718.555 634.778 710.342 638.021C702.129 641.046 694.348 642.559 686.999 642.559C659.982 642.559 638.909 635.427 623.78 621.162C608.65 606.681 601.085 586.58 601.085 560.86V495.371C601.085 490.184 603.139 485.861 607.245 482.403C611.352 478.945 616.431 477.216 622.483 477.216C628.318 477.216 633.29 479.053 637.396 482.727C641.503 486.185 643.556 490.4 643.556 495.371V560.86C643.556 576.422 647.338 588.525 654.903 597.171C662.684 605.816 673.383 610.139 686.999 610.139C700.184 610.139 710.45 605.816 717.799 597.171C725.147 588.525 728.822 576.422 728.822 560.86V498.937C728.822 492.021 730.659 486.726 734.333 483.051C738.223 479.161 743.519 477.216 750.219 477.216C756.919 477.216 762.106 479.161 765.781 483.051C769.455 486.726 771.292 492.021 771.292 498.937V633.806C771.292 661.039 763.619 682.22 748.274 697.35C733.144 712.695 711.963 720.368 684.73 720.368ZM822.329 642.559C815.629 642.559 810.441 640.83 806.767 637.372C803.093 633.914 801.256 629.159 801.256 623.107V412.699C801.256 406.647 803.093 401.892 806.767 398.434C810.441 394.976 815.629 393.247 822.329 393.247C828.813 393.247 834 394.976 837.891 398.434C841.781 401.892 843.726 406.647 843.726 412.699L844.05 502.503C851.615 494.29 860.693 488.022 871.284 483.7C881.874 479.377 893.113 477.216 905.001 477.216C931.802 477.216 952.767 484.564 967.896 499.261C983.026 513.743 990.59 533.951 990.59 559.887C990.59 585.824 982.918 606.141 967.572 620.838C952.443 635.319 931.261 642.559 904.028 642.559C891.708 642.559 880.902 640.614 871.608 636.724C862.314 632.617 853.02 625.917 843.726 616.623V623.107C843.726 629.159 841.781 633.914 837.891 637.372C834 640.83 828.813 642.559 822.329 642.559ZM897.544 608.842C913.322 608.842 925.642 604.519 934.503 595.874C943.365 587.229 947.796 575.233 947.796 559.887C947.796 544.542 943.365 532.546 934.503 523.901C925.642 515.255 913.322 510.933 897.544 510.933C880.685 510.933 867.501 515.255 857.991 523.901C848.481 532.546 843.726 544.542 843.726 559.887C843.726 575.233 848.481 587.229 857.991 595.874C867.501 604.519 880.685 608.842 897.544 608.842Z" fill="white"/>
<path d="M94.0922 658.13C90.253 661.33 90.8928 666.395 91.6927 668.528C115.688 706.92 184.472 772.506 287.65 781.304C390.827 790.102 462.812 755.709 500.404 729.315C537.995 702.921 558.791 670.128 559.591 667.728C560.391 665.329 560.391 659.73 556.391 658.13C553.192 656.851 549.193 658.663 547.593 659.73C511.761 687.884 464.411 703.987 445.216 708.519C331.642 740.512 240.604 718.172 201.27 708.52L201.268 708.519C162.271 698.95 108.682 664.557 103.689 659.73C102.984 659.048 98.8911 654.131 94.0922 658.13Z" fill="white"/>
</svg>
