<svg width="25" height="24" viewBox="0 0 25 24" fill="none" xmlns="http://www.w3.org/2000/svg">
<rect x="0.338867" width="24" height="24" rx="3" fill="#5BC0BE"/>
<path d="M2.39246 9.85055C2.39246 9.51455 2.48846 9.25295 2.68046 9.06575C2.87726 8.87855 3.14846 8.78495 3.49406 8.78495H4.77566C5.49086 8.78495 6.03086 8.92415 6.39566 9.20255C6.76046 9.48095 6.94286 9.89615 6.94286 10.4482C6.94286 10.9618 6.78926 11.3626 6.48206 11.6506C6.17966 11.9386 5.77166 12.0826 5.25806 12.0826L6.35246 13.1698C6.43886 13.2562 6.48206 13.3546 6.48206 13.465C6.48206 13.5802 6.43166 13.681 6.33086 13.7674C6.22526 13.849 6.12206 13.8898 6.02126 13.8898C5.88206 13.8898 5.75486 13.8274 5.63966 13.7026L4.08446 12.1114H3.35006V13.465C3.35006 13.5994 3.30446 13.705 3.21326 13.7818C3.12206 13.8586 3.00686 13.897 2.86766 13.897C2.72366 13.897 2.60846 13.8586 2.52206 13.7818C2.43566 13.705 2.39246 13.5994 2.39246 13.465V9.85055ZM4.74686 11.3698C5.06366 11.3698 5.31086 11.3386 5.48846 11.2762C5.66606 11.2138 5.79086 11.1178 5.86286 10.9882C5.93966 10.8538 5.97806 10.6738 5.97806 10.4482C5.97806 10.1218 5.87726 9.88655 5.67566 9.74255C5.47886 9.59855 5.16926 9.52655 4.74686 9.52655H3.65966C3.56366 9.52655 3.48686 9.55775 3.42926 9.62015C3.37646 9.68255 3.35006 9.76895 3.35006 9.87935V11.3698H4.74686ZM9.39075 13.897C8.97795 13.897 8.61795 13.8226 8.31075 13.6738C8.00355 13.525 7.76595 13.3162 7.59795 13.0474C7.43475 12.7738 7.35315 12.4546 7.35315 12.0898C7.35315 11.4994 7.52355 11.041 7.86435 10.7146C8.20995 10.3882 8.69475 10.225 9.31875 10.225C9.70275 10.225 10.0411 10.285 10.3339 10.405C10.6315 10.525 10.8619 10.693 11.0251 10.909C11.1931 11.1202 11.2771 11.3626 11.2771 11.6362C11.2771 11.8666 11.2027 12.0442 11.0539 12.169C10.9099 12.2938 10.7035 12.3562 10.4347 12.3562H8.26755C8.26755 12.625 8.36115 12.829 8.54835 12.9682C8.74035 13.1026 9.02115 13.1698 9.39075 13.1698C9.77955 13.1698 10.1107 13.0834 10.3843 12.9106C10.5379 12.8146 10.6579 12.7666 10.7443 12.7666C10.8259 12.7666 10.9051 12.805 10.9819 12.8818C11.0635 12.9634 11.1043 13.0522 11.1043 13.1482C11.1043 13.2634 11.0563 13.3546 10.9603 13.4218C10.7587 13.5754 10.5235 13.693 10.2547 13.7746C9.98595 13.8562 9.69795 13.897 9.39075 13.897ZM10.1467 11.6938C10.2283 11.6938 10.2859 11.6794 10.3195 11.6506C10.3531 11.617 10.3699 11.5642 10.3699 11.4922C10.3699 11.3242 10.2739 11.1922 10.0819 11.0962C9.89475 11.0002 9.64035 10.9522 9.31875 10.9522C8.99715 10.9522 8.74275 11.0194 8.55555 11.1538C8.37315 11.2882 8.28195 11.4682 8.28195 11.6938H10.1467ZM12.4809 13.897C12.3321 13.897 12.2169 13.8586 12.1353 13.7818C12.0537 13.705 12.0129 13.5994 12.0129 13.465V8.79215C12.0129 8.65775 12.0537 8.55215 12.1353 8.47535C12.2169 8.39855 12.3321 8.36015 12.4809 8.36015C12.6249 8.36015 12.7401 8.39855 12.8265 8.47535C12.9129 8.55215 12.9561 8.65775 12.9561 8.79215V13.465C12.9561 13.5994 12.9129 13.705 12.8265 13.7818C12.7401 13.8586 12.6249 13.897 12.4809 13.897ZM15.5459 15.625C15.1955 15.625 14.8763 15.5698 14.5883 15.4594C14.3051 15.3538 14.0867 15.205 13.9331 15.013C13.8707 14.9314 13.8395 14.8474 13.8395 14.761C13.8395 14.6458 13.8947 14.5402 14.0051 14.4442C14.0771 14.3866 14.1563 14.3578 14.2427 14.3578C14.3723 14.3578 14.4971 14.4226 14.6171 14.5522C14.8235 14.773 15.1259 14.8834 15.5243 14.8834C15.8651 14.8834 16.1219 14.7922 16.2947 14.6098C16.4723 14.4322 16.5611 14.1706 16.5611 13.825V13.5226C16.4459 13.633 16.2971 13.7242 16.1147 13.7962C15.9323 13.8634 15.7595 13.897 15.5963 13.897C14.9963 13.897 14.5283 13.7386 14.1923 13.4218C13.8563 13.1002 13.6883 12.6538 13.6883 12.0826V10.6282C13.6883 10.513 13.7339 10.417 13.8251 10.3402C13.9163 10.2634 14.0291 10.225 14.1635 10.225C14.2931 10.225 14.4035 10.2658 14.4947 10.3474C14.5859 10.4242 14.6315 10.5178 14.6315 10.6282V12.0826C14.6315 12.4282 14.7155 12.697 14.8835 12.889C15.0563 13.081 15.2939 13.177 15.5963 13.177C15.8891 13.177 16.1171 13.081 16.2803 12.889C16.4435 12.697 16.5251 12.4282 16.5251 12.0826V10.7074C16.5251 10.5538 16.5659 10.4362 16.6475 10.3546C16.7339 10.2682 16.8515 10.225 17.0003 10.225C17.1491 10.225 17.2643 10.2682 17.3459 10.3546C17.4275 10.4362 17.4683 10.5538 17.4683 10.7074V13.7026C17.4683 14.3074 17.2979 14.7778 16.9571 15.1138C16.6211 15.4546 16.1507 15.625 15.5459 15.625ZM18.6017 13.897C18.4529 13.897 18.3377 13.8586 18.2561 13.7818C18.1745 13.705 18.1337 13.5994 18.1337 13.465V8.79215C18.1337 8.65775 18.1745 8.55215 18.2561 8.47535C18.3377 8.39855 18.4529 8.36015 18.6017 8.36015C18.7457 8.36015 18.8609 8.39855 18.9473 8.47535C19.0337 8.55215 19.0769 8.65775 19.0769 8.79215L19.0841 10.7866C19.2521 10.6042 19.4537 10.465 19.6889 10.369C19.9241 10.273 20.1737 10.225 20.4377 10.225C21.0329 10.225 21.4985 10.3882 21.8345 10.7146C22.1705 11.0362 22.3385 11.485 22.3385 12.061C22.3385 12.637 22.1681 13.0882 21.8273 13.4146C21.4913 13.7362 21.0209 13.897 20.4161 13.897C20.1425 13.897 19.9025 13.8538 19.6961 13.7674C19.4897 13.6762 19.2833 13.5274 19.0769 13.321V13.465C19.0769 13.5994 19.0337 13.705 18.9473 13.7818C18.8609 13.8586 18.7457 13.897 18.6017 13.897ZM20.2721 13.1482C20.6225 13.1482 20.8961 13.0522 21.0929 12.8602C21.2897 12.6682 21.3881 12.4018 21.3881 12.061C21.3881 11.7202 21.2897 11.4538 21.0929 11.2618C20.8961 11.0698 20.6225 10.9738 20.2721 10.9738C19.8977 10.9738 19.6049 11.0698 19.3937 11.2618C19.1825 11.4538 19.0769 11.7202 19.0769 12.061C19.0769 12.4018 19.1825 12.6682 19.3937 12.8602C19.6049 13.0522 19.8977 13.1482 20.2721 13.1482Z" fill="white"/>
<path d="M2.42809 14.616C2.34283 14.687 2.35704 14.7995 2.3748 14.8469C2.9077 15.6995 4.43527 17.1561 6.72667 17.3515C9.01807 17.5468 10.6167 16.7831 11.4516 16.1969C12.2864 15.6107 12.7483 14.8824 12.766 14.8291C12.7838 14.7759 12.7838 14.6515 12.695 14.616C12.6239 14.5876 12.5351 14.6278 12.4996 14.6515C11.7038 15.2768 10.6522 15.6344 10.2259 15.735C7.70366 16.4455 5.68187 15.9494 4.80833 15.7351L4.80829 15.735C3.94222 15.5225 2.75211 14.7587 2.64123 14.6515C2.62556 14.6364 2.53467 14.5272 2.42809 14.616Z" fill="white"/>
</svg>
